<?xml version="1.0" encoding="UTF-8"?>
<svg width="1440px" height="926px" viewBox="0 0 1440 926" version="1.1" xmlns="http://www.w3.org/2000/svg" xmlns:xlink="http://www.w3.org/1999/xlink">
    <!-- Generator: Sketch 52.5 (67469) - http://www.bohemiancoding.com/sketch -->
    <title>undraw_browser</title>
    <desc>Created with Sketch.</desc>
    <defs>
        <path d="M116.10038,664.865385 L0,664.865385 L0,0 L1030,0 L1030,664.865385 L752.330993,664.865385 C710.001867,799.959788 583.585678,898 434.215686,898 C284.845694,898 158.429506,799.959788 116.10038,664.865385 Z" id="path-1"></path>
        <linearGradient x1="59.1220456%" y1="83.8568432%" x2="40.8839473%" y2="16.1288868%" id="linearGradient-3">
            <stop stop-color="#808080" stop-opacity="0.25" offset="0%"></stop>
            <stop stop-color="#808080" stop-opacity="0.12" offset="54%"></stop>
            <stop stop-color="#808080" stop-opacity="0.1" offset="100%"></stop>
        </linearGradient>
        <linearGradient x1="49.9938373%" y1="100.380357%" x2="49.998417%" y2="-0.166076988%" id="linearGradient-4">
            <stop stop-color="#808080" stop-opacity="0.25" offset="0%"></stop>
            <stop stop-color="#808080" stop-opacity="0.12" offset="54%"></stop>
            <stop stop-color="#808080" stop-opacity="0.1" offset="100%"></stop>
        </linearGradient>
        <linearGradient x1="49.9132849%" y1="100.055045%" x2="49.9657002%" y2="0.012766321%" id="linearGradient-5">
            <stop stop-color="#808080" stop-opacity="0.25" offset="0%"></stop>
            <stop stop-color="#808080" stop-opacity="0.12" offset="54%"></stop>
            <stop stop-color="#808080" stop-opacity="0.1" offset="100%"></stop>
        </linearGradient>
        <linearGradient x1="49.9049694%" y1="100.054976%" x2="49.9573847%" y2="0.0126977129%" id="linearGradient-6">
            <stop stop-color="#808080" stop-opacity="0.25" offset="0%"></stop>
            <stop stop-color="#808080" stop-opacity="0.12" offset="54%"></stop>
            <stop stop-color="#808080" stop-opacity="0.1" offset="100%"></stop>
        </linearGradient>
        <linearGradient x1="50%" y1="99.9996994%" x2="50%" y2="0%" id="linearGradient-7">
            <stop stop-color="#808080" stop-opacity="0.25" offset="0%"></stop>
            <stop stop-color="#808080" stop-opacity="0.12" offset="54%"></stop>
            <stop stop-color="#808080" stop-opacity="0.1" offset="100%"></stop>
        </linearGradient>
        <linearGradient x1="50.0037523%" y1="100.031886%" x2="50.0037523%" y2="0.0159430302%" id="linearGradient-8">
            <stop stop-color="#808080" stop-opacity="0.25" offset="0%"></stop>
            <stop stop-color="#808080" stop-opacity="0.12" offset="54%"></stop>
            <stop stop-color="#808080" stop-opacity="0.1" offset="100%"></stop>
        </linearGradient>
    </defs>
    <g id="PMA" stroke="none" stroke-width="1" fill="none" fill-rule="evenodd">
        <g id="Contact" transform="translate(0.000000, -69.000000)">
            <g id="Help" transform="translate(-150.000000, -260.000000)">
                <g id="Project-Icon">
                    <g id="undraw_browser">
                        <g>
                            <path d="M518.917325,797.395906 C548.537445,538.047395 765.626221,581.987383 962.119595,501.809281 C1158.61297,421.631179 1473.71268,152.032752 1627.56411,334.945537 C1781.41554,517.858322 1617.71939,960.011524 1264.85015,1059.7908 C911.980918,1159.57008 489.297205,1056.74442 518.917325,797.395906 Z" id="Background-Shape" fill="#FF69B4" transform="translate(1101.443650, 684.957081) rotate(38.000000) translate(-1101.443650, -684.957081) "></path>
                            <g transform="translate(0.000000, 410.000000)">
                                <mask id="mask-2" fill="white">
                                    <use xlink:href="#path-1"></use>
                                </mask>
                                <g id="Mask"></g>
                                <g mask="url(#mask-2)">
                                    <g transform="translate(37.000000, 161.000000)">
                                        <polygon id="Path" stroke="none" fill="url(#linearGradient-3)" fill-rule="evenodd" points="37.5139053 239.770098 46.2916822 266.639935 181.90431 681.889201 831.077286 470.890799 695.464659 55.6415331 686.696948 28.7716963"></polygon>
                                        <polygon id="Path" stroke="none" fill="#6C63FF" fill-rule="evenodd" opacity="0.7" points="20.1997951 282.255179 28.5033987 307.767596 156.962662 702.029389 784.906326 497.457789 656.447062 103.185948 648.143459 77.6835799"></polygon>
                                        <polygon id="Rectangle" stroke="none" fill="#F5F5F5" fill-rule="evenodd" transform="translate(369.016926, 153.676841) rotate(-18.072322) translate(-369.016926, -153.676841) " points="39.6661423 140.152456 698.29417 141.958288 698.36771 167.201226 39.7396822 165.395393"></polygon>
                                        <polygon id="Rectangle" stroke="none" fill="#FFFFFF" fill-rule="evenodd" transform="translate(437.677719, 363.196648) rotate(-18.020000) translate(-437.677719, -363.196648) " points="108.014141 156.120179 766.178083 157.974352 767.341296 570.273117 109.177354 568.418944"></polygon>
                                        <path d="M117.958243,235.143037 C119.188628,238.919791 117.116766,242.976265 113.329961,244.204697 C109.543155,245.433129 105.474567,243.368604 104.241239,239.592805 C103.007911,235.817005 105.07661,231.758927 108.862457,230.52756 C112.652025,229.300463 116.722206,231.365795 117.958243,235.143037 Z" id="Path" stroke="none" fill="#69F0AE" fill-rule="evenodd"></path>
                                        <polygon id="Rectangle" stroke="none" fill="url(#linearGradient-4)" fill-rule="evenodd" transform="translate(189.396703, 277.163103) rotate(-18.070000) translate(-189.396703, -277.163103) " points="83.7459302 267.938899 294.996297 268.527637 295.047476 286.387308 83.7971087 285.798569"></polygon>
                                        <polygon id="Rectangle" stroke="none" fill="#6C63FF" fill-rule="evenodd" transform="translate(189.162105, 276.433092) rotate(-18.070000) translate(-189.162105, -276.433092) " points="84.2753156 268.738678 294.006348 269.321559 294.048894 284.127507 84.3178614 283.544626"></polygon>
                                        <polygon id="Rectangle" stroke="none" fill="#6C63FF" fill-rule="evenodd" transform="translate(586.611925, 146.967669) rotate(-18.070000) translate(-586.611925, -146.967669) " points="481.725136 139.273254 691.456168 139.856136 691.498714 154.662084 481.767682 154.079202"></polygon>
                                        <polygon id="Rectangle" stroke="none" fill="#000000" fill-rule="evenodd" opacity="0.2" transform="translate(586.611925, 146.967669) rotate(-18.070000) translate(-586.611925, -146.967669) " points="481.725136 139.273254 691.456168 139.856136 691.498714 154.662084 481.767682 154.079202"></polygon>
                                        <polygon id="Rectangle" stroke="none" fill="#6C63FF" fill-rule="evenodd" opacity="0.2" transform="translate(124.611564, 402.057181) rotate(-18.070000) translate(-124.611564, -402.057181) " points="120.01453 397.466228 129.182736 397.49215 129.208598 406.648135 120.040392 406.622213"></polygon>
                                        <polygon id="Rectangle" stroke="none" fill="#6C63FF" fill-rule="evenodd" opacity="0.5" transform="translate(717.144497, 209.049497) rotate(-18.070000) translate(-717.144497, -209.049497) " points="712.547463 204.458543 721.715669 204.484465 721.741531 213.640451 712.573325 213.614529"></polygon>
                                        <path d="M178.059016,383.066521 C180.229935,389.706115 178.175094,396.995843 172.852937,401.535538 C167.530781,406.075233 159.98979,406.970559 153.747332,403.803908 C147.504874,400.637256 143.790732,394.032467 144.337304,387.070231 C144.883876,380.107995 149.583486,374.159895 156.244081,372.00032 C165.331596,369.065775 175.08742,374.014674 178.059016,383.066521 Z" id="Path" stroke="none" fill="#6C63FF" fill-rule="evenodd" opacity="0.2"></path>
                                        <path d="M700.379457,213.358562 C703.315998,222.427939 698.325913,232.154383 689.232236,235.086211 C680.138559,238.01804 670.382914,233.045663 667.439355,223.978549 C664.495796,214.911434 669.478353,205.181153 678.569758,202.242327 C687.670105,199.312559 697.430316,204.287264 700.379457,213.358562 Z" id="Path" stroke="none" fill="#6C63FF" fill-rule="evenodd" opacity="0.5"></path>
                                        <polygon id="Rectangle" stroke="none" fill="#6C63FF" fill-rule="evenodd" opacity="0.5" transform="translate(235.253200, 366.015637) rotate(-18.070000) translate(-235.253200, -366.015637) " points="187.788752 361.405931 282.692026 361.670811 282.717648 370.625344 187.814374 370.360464"></polygon>
                                        <polygon id="Rectangle" stroke="none" fill="#6C63FF" fill-rule="evenodd" opacity="0.8" transform="translate(261.317441, 446.032922) rotate(-18.070000) translate(-261.317441, -446.032922) " points="213.852993 441.423215 308.756267 441.688096 308.78189 450.642629 213.878615 450.377749"></polygon>
                                        <polygon id="Rectangle" stroke="none" fill="#6C63FF" fill-rule="evenodd" opacity="0.7" transform="translate(385.062941, 405.718202) rotate(-18.070000) translate(-385.062941, -405.718202) " points="337.598493 401.108495 432.501767 401.373376 432.527389 410.327909 337.624115 410.063029"></polygon>
                                        <polygon id="Rectangle" stroke="none" fill="#6C63FF" fill-rule="evenodd" opacity="0.5" transform="translate(508.812052, 365.416128) rotate(-18.070000) translate(-508.812052, -365.416128) " points="461.347604 360.806421 556.250878 361.071301 556.276501 370.025834 461.373226 369.760954"></polygon>
                                        <polygon id="Rectangle" stroke="none" fill="#6C63FF" fill-rule="evenodd" opacity="0.2" transform="translate(632.567598, 325.101408) rotate(-18.070000) translate(-632.567598, -325.101408) " points="585.10315 320.491701 680.006424 320.756581 680.032046 329.711114 585.128772 329.446234"></polygon>
                                        <polygon id="Rectangle" stroke="none" fill="#6C63FF" fill-rule="evenodd" opacity="0.8" transform="translate(287.381683, 526.050207) rotate(-18.070000) translate(-287.381683, -526.050207) " points="239.917235 521.4405 334.820509 521.70538 334.846131 530.659914 239.942857 530.395034"></polygon>
                                        <polygon id="Rectangle" stroke="none" fill="#6C63FF" fill-rule="evenodd" opacity="0.7" transform="translate(411.127183, 485.735487) rotate(-18.070000) translate(-411.127183, -485.735487) " points="363.662734 481.12578 458.566009 481.39066 458.591631 490.345194 363.688357 490.080314"></polygon>
                                        <polygon id="Rectangle" stroke="none" fill="#6C63FF" fill-rule="evenodd" opacity="0.5" transform="translate(534.876294, 445.433412) rotate(-18.070000) translate(-534.876294, -445.433412) " points="487.411846 440.823706 582.31512 441.088586 582.340742 450.043119 487.437468 449.778239"></polygon>
                                        <polygon id="Rectangle" stroke="none" fill="#6C63FF" fill-rule="evenodd" opacity="0.2" transform="translate(658.631839, 405.118692) rotate(-18.070000) translate(-658.631839, -405.118692) " points="611.167391 400.508986 706.070665 400.773866 706.096287 409.728399 611.193013 409.463519"></polygon>
                                        <polygon id="Rectangle" stroke="none" fill="#6C63FF" fill-rule="evenodd" opacity="0.2" transform="translate(358.998700, 325.700917) rotate(-18.070000) translate(-358.998700, -325.700917) " points="311.534252 321.091211 406.437526 321.356091 406.463148 330.310624 311.559874 330.045744"></polygon>
                                        <polygon id="Rectangle" stroke="none" fill="#64FFDA" fill-rule="evenodd" transform="translate(482.747811, 285.398843) rotate(-18.070000) translate(-482.747811, -285.398843) " points="435.283363 280.789136 530.186637 281.054016 530.212259 290.008549 435.308985 289.743669"></polygon>
                                        <polygon id="Rectangle" stroke="none" fill="#6C63FF" fill-rule="evenodd" opacity="0.2" transform="translate(606.493806, 245.097262) rotate(-18.070000) translate(-606.493806, -245.097262) " points="559.029358 240.487556 653.932632 240.752436 653.958254 249.706969 559.05498 249.442089"></polygon>
                                        <polygon id="Rectangle" stroke="none" fill="url(#linearGradient-5)" fill-rule="evenodd" transform="translate(166.684461, 476.853148) rotate(-18.070000) translate(-166.684461, -476.853148) " points="142.94065 453.125701 190.29461 453.259589 190.428273 500.580595 143.074313 500.446708"></polygon>
                                        <polygon id="Rectangle" stroke="none" fill="url(#linearGradient-6)" fill-rule="evenodd" transform="translate(192.748703, 556.870433) rotate(-18.070000) translate(-192.748703, -556.870433) " points="169.004891 533.142986 216.358851 533.276874 216.492515 580.59788 169.138554 580.463992"></polygon>
                                        <polygon id="Rectangle" stroke="none" fill="#6C63FF" fill-rule="evenodd" transform="translate(166.684461, 476.853148) rotate(-18.070000) translate(-166.684461, -476.853148) " points="145.241678 455.423687 188.006526 455.544599 188.127245 498.28261 145.362397 498.161697"></polygon>
                                        <polygon id="Rectangle" stroke="none" fill="#6C63FF" fill-rule="evenodd" transform="translate(192.748703, 556.870433) rotate(-18.070000) translate(-192.748703, -556.870433) " points="171.30592 535.440972 214.070767 535.561884 214.191486 578.299895 171.426638 578.178982"></polygon>
                                        <path d="M260.247092,0 L0,85.8683599 L39.874151,209.807183 L76.9480104,197.572054 C77.088025,203.03236 76.837999,220.16154 68.2771078,224.418556 C68.2771078,224.418556 86.4289974,225.015145 97.6801687,190.726449 L300.111242,123.938823 L260.247092,0 Z" id="Path" stroke="none" fill="url(#linearGradient-7)" fill-rule="evenodd"></path>
                                        <path d="M256.382226,5.75433925 L8.65705506,86.1324412 L46.6147009,202.100847 L81.9077703,190.653966 C82.0485404,195.772571 81.7971653,211.798205 73.6526108,215.787118 C73.6526108,215.787118 90.9271103,216.336968 101.645746,184.245711 L294.339872,121.762734 L256.382226,5.75433925 Z" id="Path" stroke="none" fill="#6C63FF" fill-rule="evenodd"></path>
                                        <path d="M60.5993854,184.138856 L265.483022,115.086785" id="Path" stroke="#FFFFFF" stroke-width="1" fill="none" stroke-linecap="round" stroke-linejoin="round"></path>
                                        <path d="M66.3707555,158.244329 L239.511857,100.700937" id="Path" stroke="#FFFFFF" stroke-width="1" fill="none" opacity="0.3" stroke-linecap="round" stroke-linejoin="round"></path>
                                        <path d="M57.7137004,135.226972 L230.854802,77.6835799" id="Path" stroke="#FFFFFF" stroke-width="1" fill="none" opacity="0.3" stroke-linecap="round" stroke-linejoin="round"></path>
                                        <path d="M51.9423304,112.209615 L225.083432,54.6662229" id="Path" stroke="#FFFFFF" stroke-width="1" fill="none" opacity="0.3" stroke-linecap="round" stroke-linejoin="round"></path>
                                        <path d="M46.1709603,92.069428 L219.312062,34.5260355" id="Path" stroke="#FFFFFF" stroke-width="1" fill="none" opacity="0.3" stroke-linecap="round" stroke-linejoin="round"></path>
                                        <path d="M101.078678,149.490027 C101.00786,149.157474 100.98406,148.816585 101.007979,148.477384 C101.230737,145.600053 103.395982,143.253118 106.239766,142.806585 L106.987164,142.654688 C111.875553,141.42939 116.895241,139.61676 120.187833,135.799097 C125.359021,129.72324 124.763122,120.498065 123.874324,113.024762 C123.549584,110.669945 123.874439,108.270928 124.813622,106.088159 C128.015314,98.9996597 135.065097,100.842669 141.074583,100.538877 C151.408331,99.7670471 159.966179,92.1925768 162.011833,82.0075145 C162.759231,77.754415 162.284533,73.3696719 162.890531,69.0963196 C163.759769,63.2007871 166.657262,57.7954028 171.081612,53.8155406 C175.626601,49.7649697 181.514887,47.4561442 187.170873,45.4814909 C191.677871,43.8722621 196.436277,43.0868352 201.21994,43.162539 L201.472439,43.162539 C209.713318,43.4842164 216.963494,48.7157816 219.884695,56.4484118 C221.137092,59.698995 222.20769,63.0204631 223.328787,66.4634485 C229.520072,85.5618905 235.246759,103.181874 242.397542,125.297992 C233.610563,128.092886 213.006612,134.82696 210.188718,135.748465 L179.454492,145.804007 C158.961641,152.507702 139.367687,159.555696 116.511442,166.40116 C111.794753,167.808734 116.511442,166.40116 106.270066,169.753008 C104.45207,164.203726 104.361171,163.940439 101.078678,149.490027 Z" id="Path" stroke="none" fill="#FFFFFF" fill-rule="evenodd" opacity="0.2"></path>
                                        <polygon id="Rectangle" stroke="none" fill="#6C63FF" fill-rule="evenodd" opacity="0.1" transform="translate(196.116051, 244.136787) rotate(-18.072322) translate(-196.116051, -244.136787) " points="66.0618961 241.019166 326.153714 241.716722 326.170206 247.254409 66.0783875 246.556852"></polygon>
                                        <path d="M906.105096,368.973572 L852.06117,204.279043 L773.933225,229.507985 L781.631964,252.9709 C778.189935,253.061724 767.37504,252.900259 764.706958,247.491174 C764.706958,247.491174 764.330168,258.975388 785.939592,266.08995 L827.987335,394.172239 L906.105096,368.973572 Z" id="Path" stroke="none" fill="url(#linearGradient-8)" fill-rule="evenodd"></path>
                                        <path d="M900.333726,362.149785 L850.689037,210.033383 L778.975567,233.374154 L786.023079,255.049161 C782.861767,255.129439 772.934843,254.988952 770.478281,250.031798 C770.478281,250.031798 770.135973,260.638503 789.979754,267.211248 L828.600121,385.54073 L900.333726,362.149785 Z" id="Path" stroke="none" fill="#6C63FF" fill-rule="evenodd"></path>
                                        <path d="" id="Path" stroke="#FFFFFF" stroke-width="1" fill="none" stroke-linecap="round" stroke-linejoin="round"></path>
                                        <path d="M842.620026,227.2964 L796.449066,241.682249" id="Path" stroke="#FFFFFF" stroke-width="1" fill="none" stroke-linecap="round" stroke-linejoin="round" stroke-dasharray="0"></path>
                                        <path d="" id="Path" stroke="#FFFFFF" stroke-width="1" fill="none" stroke-linecap="round" stroke-linejoin="round"></path>
                                        <path d="M793.563381,244.559418 L833.962971,371.154882" id="Path" stroke="#FFFFFF" stroke-width="1" fill="none" stroke-linecap="round" stroke-linejoin="round"></path>
                                        <path d="M807.991806,244.559418 L842.620026,351.014694" id="Path" stroke="#FFFFFF" stroke-width="1" fill="none" opacity="0.3" stroke-linecap="round" stroke-linejoin="round"></path>
                                        <path d="M819.534546,241.682249 L854.162766,348.137525" id="Path" stroke="#FFFFFF" stroke-width="1" fill="none" opacity="0.3" stroke-linecap="round" stroke-linejoin="round"></path>
                                        <path d="M833.962971,235.927909 L868.591191,342.383185" id="Path" stroke="#FFFFFF" stroke-width="1" fill="none" opacity="0.3" stroke-linecap="round" stroke-linejoin="round"></path>
                                        <path d="M845.505711,235.927909 L880.133931,342.383185" id="Path" stroke="#FFFFFF" stroke-width="1" fill="none" opacity="0.3" stroke-linecap="round" stroke-linejoin="round"></path>
                                        <path d="M811.806865,267.596775 C812.005694,267.570108 812.207267,267.570108 812.406096,267.596775 C814.181076,267.734085 815.627463,269.057382 815.899913,270.793261 C815.899913,270.983647 815.960852,271.133952 815.991321,271.244176 C816.742898,274.250275 817.84995,277.256374 820.206246,279.26044 C823.923505,282.416845 829.631427,282.056113 834.232297,281.504994 C835.683705,281.305058 837.162893,281.502644 838.50816,282.076153 C842.855119,284.08022 841.73791,288.33886 841.920726,291.996281 C842.377629,298.305056 847.042777,303.538854 853.326414,304.792243 C855.946777,305.253178 858.648391,304.952568 861.27891,305.333341 C864.914622,305.86552 868.246171,307.63839 870.693935,310.343506 C873.192421,313.119138 874.614323,316.706416 875.82294,320.163431 C876.812324,322.915839 877.293899,325.820863 877.244842,328.740834 L877.244842,328.841037 C877.045749,333.868302 873.824141,338.29287 869.058748,340.083848 C867.027458,340.845393 864.996169,341.506735 862.883629,342.188118 L826.645432,353.891864 C824.928993,348.520967 820.785163,335.945452 820.216402,334.231975 C818.053079,327.678679 816.153824,322.027212 814.031127,315.463895 C809.90761,302.958523 805.570808,290.994248 801.36604,277.045947 C800.502742,274.170112 801.36604,277.045947 799.334751,270.793261 C802.747316,269.650943 802.909819,269.600842 811.806865,267.596775 Z" id="Path" stroke="none" fill="#FFFFFF" fill-rule="evenodd" opacity="0.2"></path>
                                        <polygon id="Rectangle" stroke="none" fill="#6C63FF" fill-rule="evenodd" opacity="0.1" transform="translate(743.651827, 329.963984) rotate(-18.070000) translate(-743.651827, -329.963984) " points="739.789967 250.399856 747.075822 250.420999 747.513688 409.528112 740.227832 409.506969"></polygon>
                                    </g>
                                </g>
                            </g>
                        </g>
                    </g>
                </g>
            </g>
        </g>
    </g>
</svg>