<?xml version="1.0" encoding="UTF-8"?>
<svg width="302px" height="302px" viewBox="0 0 302 302" version="1.1" xmlns="http://www.w3.org/2000/svg" xmlns:xlink="http://www.w3.org/1999/xlink">
    <!-- Generator: Sketch 52.5 (67469) - http://www.bohemiancoding.com/sketch -->
    <title>Help-Icon</title>
    <desc>Created with Sketch.</desc>
    <defs>
        <linearGradient x1="50.0241539%" y1="99.9924693%" x2="50.0241539%" y2="0.00188267189%" id="linearGradient-1">
            <stop stop-color="#808080" stop-opacity="0.25" offset="0%"></stop>
            <stop stop-color="#808080" stop-opacity="0.12" offset="54%"></stop>
            <stop stop-color="#808080" stop-opacity="0.1" offset="100%"></stop>
        </linearGradient>
        <linearGradient x1="50%" y1="100.004204%" x2="50%" y2="0%" id="linearGradient-2">
            <stop stop-color="#808080" stop-opacity="0.25" offset="0%"></stop>
            <stop stop-color="#808080" stop-opacity="0.12" offset="54%"></stop>
            <stop stop-color="#808080" stop-opacity="0.1" offset="100%"></stop>
        </linearGradient>
    </defs>
    <g id="Help-Icon" stroke="none" stroke-width="1" fill="none" fill-rule="evenodd">
        <g>
            <rect id="Rectangle" fill-opacity="0" fill="#D8D8D8" x="0" y="0" width="302" height="302"></rect>
            <circle id="Oval" fill="#FF69B4" cx="150.5" cy="173.5" r="115.5"></circle>
            <g id="undraw_designer" transform="translate(58.000000, 13.000000)">
                <g id="Group" opacity="0.7" transform="translate(14.000000, 0.000000)" fill="url(#linearGradient-1)">
                    <path d="M147.244363,177.685066 C142.584929,160.739831 116.163569,148.363846 96.2860057,145.619606 C96.2860057,145.494053 96.2860057,145.368499 96.2860057,145.242946 L96.2860057,130.74152 L96.3486686,130.74152 L96.3486686,130.172045 C110.641481,124.845079 121.698371,113.234091 126.337337,98.6805441 C127.566055,96.4545016 128.635504,94.1438925 129.53762,91.7661351 C131.659207,90.990394 133.261586,87.488349 133.261586,83.2733396 C133.269417,81.8317312 133.067367,80.3966831 132.661813,79.0134897 C132.922475,76.8679763 133.055495,74.7088275 133.06017,72.5474859 C133.076205,57.2684629 126.617409,42.7008054 115.290765,32.4690244 C115.45789,31.60081 115.515036,30.7149443 115.46085,29.8324015 C115.013258,22.8686679 107.587705,18.1379925 100.632125,17.8241088 C104.38364,13.5605543 105.347311,7.51314114 103.107309,2.29135084 C98.6716714,8.7663227 89.5631728,9.4658349 81.7258357,9.50619137 C85.1096317,8.19236398 86.6493484,3.49756098 84.6620397,0.443921201 C76.4711048,11.4433021 60.492068,13.483546 50.7524646,23.128743 C48.6293995,25.2395259 46.8502027,27.6710742 45.47983,30.3346154 C32.6515945,40.5725505 25.1835036,56.1120155 25.1949575,72.5430019 C25.1989899,74.6847148 25.329017,76.8243282 25.5843626,78.9507129 C25.1666585,80.3516189 24.9585048,81.8068085 24.9666856,83.2688555 C24.9666856,87.5018011 26.5824929,91.0172983 28.721983,91.7885553 C29.6274708,94.1743356 30.701425,96.4924769 31.9356941,98.7253846 C36.5567728,113.196156 47.5265322,124.757296 61.7184703,130.113752 L61.7184703,145.26985 C61.7184703,145.386435 61.7184703,145.503021 61.7184703,145.619606 C41.7648159,148.310038 15.1330878,160.789156 10.5139377,177.868912 C6.52589235,192.621445 2.26929178,208.808874 0.147705382,218.333002 C18.3065156,231.117036 56.4055524,238.618856 80.2666856,238.618856 C102.955127,238.618856 140.033654,231.843452 157.65983,220.207336 C155.797847,209.732589 151.406969,192.814259 147.244363,177.685066 Z" id="Path"></path>
                </g>
                <path d="M94.3229655,234 C116.215693,234 151.991723,227.484547 169,216.287091 C167.159936,206.234423 162.920179,189.961443 158.904274,175.401173 C153.791494,156.856504 121.507555,144 102.251804,144 L83.6944714,144 C64.3760419,144 32.05181,156.928053 27.0017083,175.553215 C23.1514536,189.746795 19.0460075,205.331114 17,214.480473 C34.5052281,226.78247 71.2841153,234 94.3229655,234 Z" id="Path" fill="#6C63FF"></path>
                <circle id="Oval" fill="#72351C" cx="93" cy="74" r="52"></circle>
                <path d="M76,118 L109,118 L109,144.460855 C109,153.595173 101.612698,161 92.5,161 C83.3873016,161 76,153.595173 76,144.460855 L76,118 Z" id="Path" fill="#000000" opacity="0.1"></path>
                <path d="M80.7364393,116.000002 L104.267991,116.000002 C106.881408,116.000002 109,118.123621 109,120.743237 L109,142.460856 C109,151.595173 101.612698,159 92.5,159 C83.3873016,159 76,151.595173 76,142.460856 L76,120.743237 C75.9999994,119.484483 76.4991571,118.277349 77.3875394,117.387692 C78.2759216,116.498035 79.4806651,115.998823 80.7364393,116.000002 Z" id="Path" fill="#FDA57D"></path>
                <path d="M76,130.980314 C86.635264,134.974141 98.3424926,135.007311 109,131.073811 L109,127 L76,127 L76,130.980314 Z" id="Path" fill="#000000" opacity="0.1"></path>
                <ellipse id="Oval" fill="#FDA57D" cx="93.5" cy="84" rx="47.5" ry="48"></ellipse>
                <path d="M59,40.1616339 C59,40.1616339 78.895288,81.5247777 135,57.4959256 L121.957533,36.5154085 L98.7905759,28 L59,40.1616339 Z" id="Path" fill="#000000" opacity="0.1"></path>
                <path d="M59,40.1646742 C59,40.1646742 78.895288,81.522755 135,57.4968441 L121.957533,36.5143662 L98.7905759,28 L59,40.1646742 Z" id="Path" fill="#72351C"></path>
                <path d="M58.9976374,37.3905407 C60.3498851,33.1342608 62.6867836,29.2701704 65.8120192,26.1228762 C75.1712094,16.7135152 90.5113678,14.7283032 98.3820011,4 C100.271666,6.977818 98.8276768,11.55559 95.5608738,12.8337402 C103.088337,12.7838832 111.836951,12.113081 116.097611,5.79938165 C118.24754,10.8907221 117.321001,16.7861171 113.717703,20.9422887 C120.402839,21.2504951 127.53365,25.8645267 127.979326,32.6496006 C128.269015,37.1820481 125.479085,41.4561461 121.824544,44.048706 C118.170003,46.641266 113.7489,47.8332997 109.394648,48.8077759 C96.6750631,51.6632178 50.6857851,63.6016845 58.9976374,37.3905407 Z" id="Path" fill="#72351C"></path>
                <path d="M141,85.0090071 L139.736122,85.0090071 L115.232913,107.076334 C91.6464609,95.8850467 74.2903921,107.076334 74.2903921,107.076334 L48.5900595,85.9097143 L46,86.2384724 C46.7096958,112.509011 68.1335203,133.334471 94.1009092,132.99593 C120.068298,132.657389 140.954859,111.280322 140.99555,85 L141,85.0090071 Z M93.4176699,115.551989 C84.1744507,115.551989 76.6846395,113.656 76.6846395,111.318665 C76.6846395,108.98133 84.178901,107.085341 93.4176699,107.085341 C102.656439,107.085341 110.1507,108.98133 110.1507,111.318665 C110.1507,113.656 102.660889,115.551989 93.4176699,115.551989 Z" id="Shape" fill="#72351C" fill-rule="nonzero"></path>
                <ellipse id="Oval" fill="#FDA57D" cx="45.5" cy="84.5" rx="4.5" ry="8.5"></ellipse>
                <ellipse id="Oval" fill="#FDA57D" cx="140.5" cy="84.5" rx="4.5" ry="8.5"></ellipse>
                <g id="Group" opacity="0.7" transform="translate(0.000000, 170.000000)" fill="url(#linearGradient-2)">
                    <rect id="Rectangle" x="0.0714975845" y="0.310460251" width="184.606763" height="105.507699" rx="14.5"></rect>
                </g>
                <rect id="Rectangle" fill="#535461" x="4" y="171" width="178" height="105" rx="26.84"></rect>
                <circle id="Oval" fill="#FFFFFF" cx="93" cy="224" r="6"></circle>
            </g>
        </g>
    </g>
</svg>