<?xml version="1.0" encoding="UTF-8"?>
<svg width="829px" height="789px" viewBox="0 0 829 789" version="1.1" xmlns="http://www.w3.org/2000/svg" xmlns:xlink="http://www.w3.org/1999/xlink">
    <!-- Generator: Sketch 52.5 (67469) - http://www.bohemiancoding.com/sketch -->
    <title>IMAGE_1</title>
    <desc>Created with Sketch.</desc>
    <defs>
        <linearGradient x1="50.01507%" y1="100%" x2="50.01507%" y2="0.00796355692%" id="linearGradient-1">
            <stop stop-color="#808080" stop-opacity="0.25" offset="0%"></stop>
            <stop stop-color="#808080" stop-opacity="0.12" offset="54%"></stop>
            <stop stop-color="#808080" stop-opacity="0.1" offset="100%"></stop>
        </linearGradient>
        <linearGradient x1="-0.00544108931%" y1="50.0283101%" x2="100.01758%" y2="50.0283101%" id="linearGradient-2">
            <stop stop-color="#808080" stop-opacity="0.25" offset="0%"></stop>
            <stop stop-color="#808080" stop-opacity="0.12" offset="54%"></stop>
            <stop stop-color="#808080" stop-opacity="0.1" offset="100%"></stop>
        </linearGradient>
        <linearGradient x1="50.0036425%" y1="100%" x2="50.0036425%" y2="0%" id="linearGradient-3">
            <stop stop-color="#808080" stop-opacity="0.25" offset="0%"></stop>
            <stop stop-color="#808080" stop-opacity="0.12" offset="54%"></stop>
            <stop stop-color="#808080" stop-opacity="0.1" offset="100%"></stop>
        </linearGradient>
        <linearGradient x1="50%" y1="100%" x2="50%" y2="0%" id="linearGradient-4">
            <stop stop-color="#808080" stop-opacity="0.25" offset="0%"></stop>
            <stop stop-color="#808080" stop-opacity="0.12" offset="54%"></stop>
            <stop stop-color="#808080" stop-opacity="0.1" offset="100%"></stop>
        </linearGradient>
        <linearGradient x1="50.0088763%" y1="100%" x2="50.0088763%" y2="0%" id="linearGradient-5">
            <stop stop-color="#808080" stop-opacity="0.25" offset="0%"></stop>
            <stop stop-color="#808080" stop-opacity="0.12" offset="54%"></stop>
            <stop stop-color="#808080" stop-opacity="0.1" offset="100%"></stop>
        </linearGradient>
        <linearGradient x1="50.0431779%" y1="100.191693%" x2="50.0431779%" y2="0%" id="linearGradient-6">
            <stop stop-color="#808080" stop-opacity="0.25" offset="0%"></stop>
            <stop stop-color="#808080" stop-opacity="0.12" offset="54%"></stop>
            <stop stop-color="#808080" stop-opacity="0.1" offset="100%"></stop>
        </linearGradient>
        <linearGradient x1="49.9918593%" y1="100%" x2="49.9918593%" y2="0%" id="linearGradient-7">
            <stop stop-color="#808080" stop-opacity="0.25" offset="0%"></stop>
            <stop stop-color="#808080" stop-opacity="0.12" offset="54%"></stop>
            <stop stop-color="#808080" stop-opacity="0.1" offset="100%"></stop>
        </linearGradient>
        <linearGradient x1="49.9835796%" y1="100%" x2="49.9835796%" y2="0%" id="linearGradient-8">
            <stop stop-color="#808080" stop-opacity="0.25" offset="0%"></stop>
            <stop stop-color="#808080" stop-opacity="0.12" offset="54%"></stop>
            <stop stop-color="#808080" stop-opacity="0.1" offset="100%"></stop>
        </linearGradient>
        <linearGradient x1="49.9931497%" y1="99.9833194%" x2="49.9931497%" y2="0%" id="linearGradient-9">
            <stop stop-color="#808080" stop-opacity="0.25" offset="0%"></stop>
            <stop stop-color="#808080" stop-opacity="0.12" offset="54%"></stop>
            <stop stop-color="#808080" stop-opacity="0.1" offset="100%"></stop>
        </linearGradient>
    </defs>
    <g id="PMA" stroke="none" stroke-width="1" fill="none" fill-rule="evenodd">
        <g id="Desktop-HD" transform="translate(-611.000000, -177.000000)">
            <g id="IMAGE_1" transform="translate(611.000000, 177.000000)">
                <ellipse id="Oval" fill="#FF69B4" cx="660.5" cy="394.5" rx="396.5" ry="394.5"></ellipse>
                <g id="undraw_design" transform="translate(0.000000, 124.000000)">
                    <path d="M402.462351,374.729471 C396.095797,351.769793 360.756673,334.845176 333.180943,330.472353 L333.180943,319.44113 L334.701314,318.855568 C334.557487,316.652688 334.113148,314.47945 333.380492,312.395502 C345.165106,307.625459 355.337341,299.615126 362.704648,289.3036 C378.405916,272.956293 385.847442,250.440012 382.957625,228.02293 C380.067808,205.605848 367.155218,185.681632 347.814514,173.796867 C353.20619,170.429266 355.825058,164.01051 354.316146,157.861588 C352.807234,151.712666 347.509082,147.213149 341.162891,146.691035 C346.353918,134.518425 342.507616,120.396129 331.847555,112.488328 C321.187494,104.580528 306.471684,104.933158 296.20742,113.342361 C305.156439,108.609844 315.947139,108.889338 324.636014,114.0787 C333.324889,119.268062 338.638617,128.606812 338.635274,138.682064 C338.635274,138.937067 338.635274,139.182625 338.635274,139.428183 C338.303406,128.065217 331.255507,117.967666 320.663172,113.679484 C310.070836,109.391302 297.930313,111.720647 289.704905,119.619301 C281.479497,127.517954 278.719377,139.497324 282.666616,150.166626 C278.177867,151.124096 274.415093,154.14684 272.531752,158.308253 C270.64841,162.469666 270.869144,167.273379 273.126287,171.246841 C251.943026,182.307273 237.298225,202.703658 233.662004,226.210286 C230.025783,249.716914 237.829725,273.543775 254.691789,290.418056 C261.705271,299.809753 271.085608,307.198028 281.887425,311.838274 L281.887425,330.226795 C254.017124,334.184058 217.319168,351.420345 210.914605,374.946696 C205.327242,395.450794 199.359785,417.966579 196.395062,431.188936 C221.83277,448.954117 275.207295,459.390335 308.66496,459.390335 C340.450217,459.390335 392.399395,449.945794 417.08642,433.795629 C414.444775,419.269925 408.296775,395.762464 402.462351,374.729471 Z M351.510917,162.623975 C351.510917,162.888422 351.510917,163.143425 351.510917,163.398427 C351.124176,156.722525 346.151139,151.196147 339.51899,150.07218 C339.797725,149.599953 340.06379,149.12143 340.317185,148.63661 C346.869596,150.1405 351.510805,155.94002 351.510917,162.623975 Z" id="Shape" fill="url(#linearGradient-1)" fill-rule="nonzero"></path>
                    <path d="M307.597486,453.345725 C338.511202,453.345725 389.02897,444.149331 413.037037,428.35697 C410.440285,414.17801 404.476316,391.229734 398.769168,370.692071 C391.549626,344.535972 345.968541,326.408922 318.773983,326.408922 L292.587688,326.408922 C265.317034,326.408922 219.669366,344.649859 212.535431,370.910355 C207.104129,390.926035 201.273327,412.91576 198.419753,425.822979 C223.150726,443.124346 275.066745,453.345725 307.597486,453.345725 Z" id="Path" fill="#6C63FF"></path>
                    <ellipse id="Oval" fill="#F55F44" cx="307.753086" cy="239.769517" rx="72.8888889" ry="72.535316"></ellipse>
                    <path d="M287.304129,288.126394 L326.254616,288.126394 C329.454977,288.126394 332.049383,290.6816 332.049383,293.833607 L332.049383,333.061182 C332.049383,346.078969 321.334489,356.63197 308.116998,356.63197 L305.364484,356.63197 C292.146992,356.63197 281.432099,346.078969 281.432099,333.061182 L281.432099,293.871655 C281.432099,290.719648 284.026504,288.164442 287.226865,288.164442 L287.304129,288.126394 Z" id="Path" fill="#FDA57D"></path>
                    <path d="M309.47883,322.379169 C317.904422,322.384404 326.253143,320.85447 334.074074,317.872001 C333.241595,305.694108 322.633577,296.213597 309.808837,296.185874 L307.722027,296.185874 C295.113149,296.194533 284.591185,305.34983 283.45679,317.299369 C291.679368,320.6533 300.532665,322.381565 309.47883,322.379169 Z" id="Path" fill="#000000" opacity="0.05"></path>
                    <ellipse id="Oval" fill="#FDA57D" cx="307.753086" cy="251.858736" rx="64.7901235" ry="64.4758364"></ellipse>
                    <ellipse id="Oval" fill="#F55F44" cx="287.506173" cy="167.234201" rx="14.1728395" ry="14.1040892"></ellipse>
                    <ellipse id="Oval" fill="#F55F44" cx="336.098765" cy="167.234201" rx="14.1728395" ry="14.1040892"></ellipse>
                    <ellipse id="Oval" fill="#F55F44" cx="309.777778" cy="143.055762" rx="28.345679" ry="28.2081784"></ellipse>
                    <path d="M340.029467,151.115377 C337.186301,151.110343 334.406752,151.909632 332.049383,153.410136 C338.826663,151.161192 346.31921,154.009973 349.553475,160.065459 C352.787741,166.120946 350.758878,173.501772 344.813644,177.30855 C351.378039,175.108695 355.304486,168.759918 354.106925,162.281998 C352.909364,155.804078 346.937033,151.086138 339.97136,151.115377 L340.029467,151.115377 Z" id="Path" fill="#F55F44"></path>
                    <path d="M314.98431,110.817968 C308.651034,110.79861 302.510984,113.04579 297.62963,117.169559 C309.973577,110.457425 325.286029,114.3941 333.052592,126.276441 C340.819155,138.158782 338.513607,154.121832 327.719067,163.204461 C338.759472,157.211005 344.386004,144.303134 341.36166,131.906884 C338.337316,119.510635 327.439649,110.81306 314.938203,110.817968 L314.98431,110.817968 Z" id="Path" fill="#F55F44"></path>
                    <path d="M261.185185,191.955465 C261.185185,191.955465 269.074112,243.299664 368.493827,215.289425 L319.572862,173.27881 L261.185185,191.955465 Z" id="Path" fill="#F55F44"></path>
                    <g id="Group" opacity="0.7" transform="translate(38.469136, 380.810409)" fill="url(#linearGradient-2)">
                        <path d="M77.7785185,50.8873331 C79.2881345,44.8966153 76.9108922,38.6052266 71.7985185,35.0612201 C70.41794,34.2786879 69.0807177,33.4236287 67.7925926,32.4997133 C65.8628608,30.682744 64.4739757,28.3772608 63.777037,25.8340821 C61.7644444,19.8731033 61.1385185,13.1789051 57.6140741,7.78926618 C54.4074074,2.88526608 48.1674074,1.4473942 42.6303704,0.96175536 C40.622082,0.636893642 38.5630888,0.827056183 36.6503704,1.51405052 C33.5688889,2.89478841 32.0955556,6.49422926 31.9511111,9.84608952 C31.8066667,13.1979498 32.6925926,16.5117207 32.9140741,19.835014 C33.1355556,23.1583073 32.5288889,26.8529714 30.0251852,29.119286 C27.5214815,31.3856007 23.9585185,31.6522259 20.6555556,32.1092978 C16.3287236,32.7059103 12.0777294,33.7528273 7.97333333,35.2326221 C4.52592593,36.470525 0.683703704,38.717795 0.52,42.3458028 C0.385185185,45.3072475 2.80222222,47.6783078 4.62222222,50.0303234 C8.14434081,54.4561015 9.57833556,60.1628369 8.56074074,65.704079 C7.38592593,71.2270306 3.46666667,75.9596288 2.78296296,81.558759 C2.51564664,82.9584591 2.6939631,84.4056922 3.29333333,85.7009727 C3.84626671,86.5873386 4.57711967,87.352179 5.44074074,87.9482426 C7.56888889,89.5765611 9.94740741,90.8811203 11.9696296,92.6522738 C16.1777778,96.3374156 18.4503704,101.679443 20.202963,106.935769 C20.3762963,107.440453 20.5207407,107.954659 20.6844444,108.468864 L16.5533333,108.468864 C8.11666171,108.4898 1.28265265,115.24766 1.26148148,123.590325 C1.28265265,131.93299 8.11666171,138.69085 16.5533333,138.711785 L57.8259259,138.711785 C66.2625976,138.69085 73.0966066,131.93299 73.1177778,123.590325 C73.0493311,115.292238 66.2466049,108.590777 57.8548148,108.554565 L46.54,108.554565 C49.217037,105.012258 52.0096296,101.679443 56.1696296,100.31775 C60.3296296,98.9560564 65.2985185,99.7559322 68.5340741,96.9087554 C70.0531993,95.4314518 71.0380047,93.5005202 71.3362963,91.4143708 C72.0212853,87.6915721 71.3815926,83.8490772 69.5259259,80.5398696 C68.2259259,78.244988 66.3192593,76.1595977 65.9051852,73.5600015 C65.6964933,71.3001274 66.2446114,69.0350585 67.4651852,67.1133839 C70.5659259,61.4380751 76.0933333,57.0863701 77.7785185,50.8873331 Z" id="Path"></path>
                    </g>
                    <path d="M81.9977992,384.985604 C80.1141288,384.679808 78.1828213,384.857977 76.3884213,385.503086 C73.4935646,386.801494 72.1173213,390.207463 71.9844426,393.340578 C71.851564,396.473694 72.67731,399.5974 72.933576,402.749333 C73.189842,405.901266 72.5729053,409.335461 70.2380373,411.480657 C67.9031694,413.625853 64.5432374,413.861072 61.4395714,414.303284 C57.3725754,414.862418 53.3766432,415.846402 49.5184569,417.238815 C46.2819123,418.405501 42.6752057,420.513062 42.5233443,423.92844 C42.399957,426.751066 44.6683856,428.943306 46.3768256,431.163772 C49.6772372,435.321841 51.0245614,440.681372 50.0784456,445.888473 C48.9774509,451.082106 45.332779,455.541855 44.6304203,460.810758 C44.3858615,462.147579 44.5718132,463.526791 45.161935,464.753026 C45.6805483,465.586911 46.3652101,466.307235 47.1740976,466.869996 C49.1767689,468.403623 51.4072322,469.63617 53.2960075,471.292111 C57.2444022,474.754532 59.3799521,479.75999 61.0314441,484.756039 C62.6504121,489.63834 63.9190871,494.628015 64.8279774,499.687732 C68.2258747,497.523719 72.620362,497.551945 76.2175773,495.783099 C83.9435225,492.019597 86.5441478,481.152486 94.697203,478.442764 C98.5601756,477.163174 103.239403,477.915874 106.305104,475.234379 C107.735006,473.844188 108.662443,472.025294 108.943694,470.059564 C109.584284,466.550021 108.977139,462.928869 107.225763,459.81343 C106.001381,457.649417 104.21701,455.692396 103.827866,453.227302 C103.630486,451.100255 104.14408,448.967878 105.289531,447.158655 C108.222353,441.870935 113.404621,437.7499 114.989673,431.944699 C116.400196,426.308805 114.167189,420.393465 109.370804,417.060049 C108.062561,416.325364 106.795212,415.521317 105.574271,414.651408 C103.753918,412.946602 102.440677,410.779079 101.777738,408.385177 C99.879471,402.739924 99.3004996,396.483102 95.9880243,391.449419 C93.0552024,386.792085 87.1990498,385.484268 81.9977992,384.985604 Z" id="Path" fill="#4DB6AC"></path>
                    <path d="M81.7277629,384.840149 C81.7277629,384.840149 88.5208609,481.177686 70.8641975,497.672862" id="Path" stroke="#535461" opacity="0.6"></path>
                    <rect id="Rectangle" fill="#6C63FF" x="42.5185185" y="485.583643" width="66.8148148" height="28.2081784" rx="14.1040892"></rect>
                    <path d="M42.5185185,423.229382 C42.5185185,423.229382 60.7558363,421.367657 83.0123457,433.197026" id="Path" stroke="#535461" opacity="0.6"></path>
                    <path d="M83.0123457,445.286245 C90.054046,434.395246 101.056103,427.096121 113.382716,425.137546" id="Path" stroke="#535461" opacity="0.6"></path>
                    <path d="M42.5185185,460.644186 C42.5185185,460.644186 68.8762717,456.443342 80.9876543,463.420074" id="Path" stroke="#535461" opacity="0.6"></path>
                    <path d="M78.962963,473.494424 C78.962963,473.494424 92.2797249,465.523228 107.308642,472.002958" id="Path" stroke="#535461" opacity="0.6"></path>
                    <g id="Group" opacity="0.7" transform="translate(512.246914, 457.375465)" fill="url(#linearGradient-3)" fill-rule="nonzero">
                        <path d="M52.6214392,11.026538 L52.6214392,0.753951313 L0.629968254,0.753951313 L0.629968254,48.2434596 C0.629968254,53.7711141 5.16835115,58.2521633 10.7667302,58.2521633 L42.4846772,58.2521633 C48.0830563,58.2521633 52.6214392,53.7711141 52.6214392,48.2434596 L52.6214392,37.6975657 C60.0885803,37.6975657 66.1418942,31.7207236 66.1418942,24.3479152 C66.1418942,16.9751069 60.0885803,10.9982648 52.6214392,10.9982648 L52.6214392,11.026538 Z M52.6214392,32.5895455 L52.6214392,16.1534069 C55.6605327,16.0517466 58.5138896,17.5945892 60.0639386,20.177651 C61.6139876,22.7607129 61.6139876,25.9728151 60.0639386,28.555877 C58.5138896,31.1389388 55.6605327,32.6817814 52.6214392,32.5801211 L52.6214392,32.5895455 Z" id="Shape"></path>
                    </g>
                    <path d="M564.889066,469.464684 C559.975671,469.464684 555.54608,472.410085 553.665805,476.92745 C551.78553,481.444816 552.824859,486.644529 556.299154,490.101971 C559.773449,493.559413 564.998508,494.5937 569.537894,492.722546 C574.077279,490.851392 577.037037,486.443288 577.037037,481.553727 C577.037037,474.877133 571.598205,469.464684 564.889066,469.464684 Z M564.889066,488.996014 C560.738014,488.996014 557.372921,485.647245 557.372921,481.516328 C557.372921,477.385412 560.738014,474.036642 564.889066,474.036642 C569.040119,474.036642 572.405212,477.385412 572.405212,481.516328 C572.405212,485.647245 569.040119,488.996014 564.889066,488.996014 Z" id="Shape" fill="#6C63FF" fill-rule="nonzero"></path>
                    <path d="M564.889066,469.464684 C559.975671,469.464684 555.54608,472.410085 553.665805,476.92745 C551.78553,481.444816 552.824859,486.644529 556.299154,490.101971 C559.773449,493.559413 564.998508,494.5937 569.537894,492.722546 C574.077279,490.851392 577.037037,486.443288 577.037037,481.553727 C577.037037,474.877133 571.598205,469.464684 564.889066,469.464684 Z M564.889066,488.996014 C560.738014,488.996014 557.372921,485.647245 557.372921,481.516328 C557.372921,477.385412 560.738014,474.036642 564.889066,474.036642 C569.040119,474.036642 572.405212,477.385412 572.405212,481.516328 C572.405212,485.647245 569.040119,488.996014 564.889066,488.996014 Z" id="Shape" fill="#000000" fill-rule="nonzero" opacity="0.1"></path>
                    <path d="M518.320988,459.390335 L564.888889,459.390335 L564.888889,502.615167 C564.888889,507.675081 560.802051,511.776952 555.760681,511.776952 L527.449195,511.776952 C522.407825,511.776952 518.320988,507.675081 518.320988,502.615167 L518.320988,459.390335 Z" id="Path" fill="#6C63FF"></path>
                    <rect id="Rectangle" fill="#E0E0E0" x="0" y="511.776952" width="613.481481" height="20.1486989"></rect>
                    <g id="Group" opacity="0.7" transform="translate(176.148148, 364.691450)" fill="url(#linearGradient-4)">
                        <rect id="Rectangle" x="0.49208803" y="0.0562642912" width="259.82248" height="148.256407" rx="14.5"></rect>
                    </g>
                    <rect id="Rectangle" fill="#535461" x="182.222222" y="364.69145" width="251.061728" height="147.085502" rx="26.84"></rect>
                    <ellipse id="Oval" fill="#FFFFFF" cx="306.740741" cy="440.249071" rx="9.11111111" ry="9.0669145"></ellipse>
                    <rect id="Rectangle" fill="#E0E0E0" x="26.3209877" y="533.94052" width="560.839506" height="8.05947955"></rect>
                    <rect id="Rectangle" fill="#000000" opacity="0.1" x="26.3209877" y="531.925651" width="560.839506" height="4.02973978"></rect>
                    <path d="M553.994121,459.390335 L553.994121,502.653968 C553.994121,507.692453 549.807023,511.776952 544.641975,511.776952 L549.462669,511.776952 C554.627717,511.776952 558.814815,507.692453 558.814815,502.653968 L558.814815,459.390335 L553.994121,459.390335 Z" id="Path" fill="#000000" opacity="0.1"></path>
                    <path d="M526.683847,424.356177 C525.855422,424.38157 525.081678,424.768062 524.573352,425.410385 C523.949797,426.521068 525.08179,427.782352 526.117851,428.54477 C528.036482,429.956655 530.041451,431.36854 531.346121,433.316942 C532.65079,435.265343 533.053702,438.023226 531.633915,439.905739 C529.782436,442.371832 525.350398,442.908348 524.918706,445.939195 C524.640505,447.887596 526.357679,449.553621 528.103634,450.532528 C532.401368,452.951558 537.946212,453.591612 541.054395,457.375465 C542.339878,454.777596 545.227418,453.271585 548.095771,452.669181 C550.964125,452.066777 553.947597,452.076189 556.863916,451.643211 C557.838676,451.625777 558.745404,451.149424 559.300578,450.363102 C560.115996,448.74414 557.794452,446.795739 558.600277,445.176777 C559.214239,443.934318 560.998566,444.037856 562.303236,443.53899 C564.432916,442.729509 565.305893,440.046928 564.701525,437.89145 C564.097156,435.735972 562.389574,434.041709 560.595654,432.658062 C555.799076,428.893035 549.94725,426.737557 544.066646,425.128008 C541.332596,424.393827 538.118889,423.245494 535.279315,423.132543 C532.43974,423.019593 529.427489,423.904374 526.683847,424.356177 Z" id="Path" fill="#EEEEEE"></path>
                    <rect id="Rectangle" fill="#535461" opacity="0.1" x="406.962963" y="0" width="413.037037" height="280.066914"></rect>
                    <g id="Group" opacity="0.5" transform="translate(443.407407, 26.193309)" fill="url(#linearGradient-4)">
                        <rect id="Rectangle" x="0.934862298" y="0.305411857" width="97.5690978" height="90.0583213" rx="4.5"></rect>
                    </g>
                    <rect id="Rectangle" fill="#F5F5F5" x="445.432099" y="28.2081784" width="95.1604938" height="86.6394052" rx="4.5"></rect>
                    <rect id="Rectangle" fill="#6C63FF" x="453.530864" y="44.3271375" width="16.1975309" height="14.1040892" rx="4.5"></rect>
                    <rect id="Rectangle" fill="#E0E0E0" x="473.777778" y="42.3122677" width="64.7901235" height="2.01486989" rx="0.8"></rect>
                    <rect id="Rectangle" fill="#E0E0E0" x="473.777778" y="46.3420074" width="64.7901235" height="2.01486989" rx="0.8"></rect>
                    <rect id="Rectangle" fill="#E0E0E0" x="451.506173" y="64.4758364" width="87.0617284" height="2.01486989" rx="0.8"></rect>
                    <rect id="Rectangle" fill="#E0E0E0" x="451.506173" y="70.5204461" width="87.0617284" height="2.01486989" rx="0.8"></rect>
                    <rect id="Rectangle" fill="#E0E0E0" x="451.506173" y="76.5650558" width="87.0617284" height="2.01486989" rx="0.8"></rect>
                    <rect id="Rectangle" fill="#E0E0E0" x="451.506173" y="80.5947955" width="50.617284" height="2.01486989" rx="0.8"></rect>
                    <rect id="Rectangle" fill="#E0E0E0" x="451.506173" y="86.6394052" width="87.0617284" height="2.01486989" rx="0.8"></rect>
                    <rect id="Rectangle" fill="#E0E0E0" x="451.506173" y="90.669145" width="87.0617284" height="2.01486989" rx="0.8"></rect>
                    <rect id="Rectangle" fill="#E0E0E0" x="451.506173" y="98.7286245" width="87.0617284" height="2.01486989" rx="0.8"></rect>
                    <rect id="Rectangle" fill="#E0E0E0" x="451.506173" y="102.758364" width="50.617284" height="2.01486989" rx="0.8"></rect>
                    <g id="Group" opacity="0.5" transform="translate(459.604938, 48.356877)" fill="url(#linearGradient-4)">
                        <rect id="Rectangle" x="0.396289105" y="0.114529446" width="96.5058324" height="90.0583213" rx="4.5"></rect>
                    </g>
                    <rect id="Rectangle" fill="#FFFFFF" x="459.604938" y="48.3568773" width="95.1604938" height="86.6394052" rx="4.5"></rect>
                    <rect id="Rectangle" fill="#6C63FF" x="467.703704" y="64.4758364" width="16.1975309" height="14.1040892" rx="4.5"></rect>
                    <rect id="Rectangle" fill="#E0E0E0" x="487.950617" y="64.4758364" width="64.7901235" height="2.01486989" rx="0.8"></rect>
                    <rect id="Rectangle" fill="#E0E0E0" x="487.950617" y="68.5055762" width="64.7901235" height="2.01486989" rx="0.8"></rect>
                    <rect id="Rectangle" fill="#E0E0E0" x="465.679012" y="84.6245353" width="87.0617284" height="2.01486989" rx="0.8"></rect>
                    <rect id="Rectangle" fill="#E0E0E0" x="465.679012" y="90.669145" width="87.0617284" height="2.01486989" rx="0.8"></rect>
                    <rect id="Rectangle" fill="#E0E0E0" x="465.679012" y="96.7137546" width="87.0617284" height="2.01486989" rx="0.8"></rect>
                    <rect id="Rectangle" fill="#E0E0E0" x="465.679012" y="100.743494" width="50.617284" height="2.01486989" rx="0.8"></rect>
                    <rect id="Rectangle" fill="#E0E0E0" x="465.679012" y="106.788104" width="87.0617284" height="2.01486989" rx="0.8"></rect>
                    <rect id="Rectangle" fill="#E0E0E0" x="465.679012" y="112.832714" width="87.0617284" height="2.01486989" rx="0.8"></rect>
                    <rect id="Rectangle" fill="#E0E0E0" x="465.679012" y="118.877323" width="87.0617284" height="2.01486989" rx="0.8"></rect>
                    <rect id="Rectangle" fill="#E0E0E0" x="465.679012" y="122.907063" width="50.617284" height="2.01486989" rx="0.8"></rect>
                    <rect id="Rectangle" fill="url(#linearGradient-5)" x="597.283951" y="62.4609665" width="52.6419753" height="52.3866171"></rect>
                    <rect id="Rectangle" fill="#F5F5F5" x="597.283951" y="64.4758364" width="52.6419753" height="48.3568773"></rect>
                    <g id="Group" opacity="0.5" transform="translate(611.456790, 68.505576)" fill="url(#linearGradient-6)" fill-rule="nonzero">
                        <path d="M17.1592593,2.80066914 L17.1592593,0.130966543 L7.39012346,0.130966543 L7.39012346,2.80066914 L0.546666667,2.80066914 L0.546666667,15.8973234 L23.9925926,15.8973234 L23.9925926,2.80066914 L17.1592593,2.80066914 Z M8.60493827,1.09810409 L15.934321,1.09810409 L15.934321,2.80066914 L8.60493827,2.80066914 L8.60493827,1.09810409 Z" id="Shape"></path>
                    </g>
                    <rect id="Rectangle" fill="#6C63FF" opacity="0.6" x="613.481481" y="72.535316" width="20.2469136" height="10.0743494"></rect>
                    <polygon id="Path" fill="#6C63FF" opacity="0.6" points="619.555556 70.5204461 619.555556 74.5501859 620.572482 74.5501859 620.572482 71.6680743 626.637395 71.6680743 626.637395 74.5501859 627.654321 74.5501859 627.654321 70.5204461"></polygon>
                    <g id="Group" opacity="0.6" transform="translate(613.481481, 90.669145)" fill="#6C63FF">
                        <rect id="Rectangle" x="0.713462669" y="0.433197026" width="18.9549677" height="2.6697026"></rect>
                    </g>
                    <rect id="Rectangle" fill="#BDBDBD" x="609.432099" y="96.7137546" width="30.3703704" height="4.02973978"></rect>
                    <g id="Group" opacity="0.5" transform="translate(674.222222, 18.133829)" fill="url(#linearGradient-7)">
                        <rect id="Rectangle" x="0.095473251" y="0.03779618" width="117.279342" height="136.368617"></rect>
                    </g>
                    <rect id="Rectangle" fill="#FFFFFF" x="678.271605" y="18.133829" width="111.358025" height="130.966543"></rect>
                    <g id="Group" opacity="0.5" transform="translate(718.765432, 36.267658)" fill="url(#linearGradient-8)" fill-rule="nonzero">
                        <path d="M21.2782407,4.06637377 L21.2782407,0.870057452 L9.25347222,0.870057452 L9.25347222,4.06637377 L0.825694444,4.06637377 L0.825694444,19.7548834 L29.725,19.7548834 L29.725,4.06637377 L21.2782407,4.06637377 Z M10.7435185,2.03318689 L19.7787037,2.03318689 L19.7787037,4.06637377 L10.7435185,4.06637377 L10.7435185,2.03318689 Z" id="Shape"></path>
                    </g>
                    <rect id="Rectangle" fill="#6C63FF" x="720.790123" y="40.2973978" width="26.3209877" height="16.1189591"></rect>
                    <polygon id="Path" fill="#6C63FF" points="728.888889 36.267658 728.888889 40.2973978 730.153231 40.2973978 730.153231 37.4190122 737.748004 37.4190122 737.748004 40.2973978 739.012346 40.2973978 739.012346 36.267658"></polygon>
                    <rect id="Rectangle" fill="#E0E0E0" x="694.469136" y="76.5650558" width="78.962963" height="4.02973978"></rect>
                    <rect id="Rectangle" fill="#E0E0E0" x="694.469136" y="96.7137546" width="78.962963" height="4.02973978"></rect>
                    <rect id="Rectangle" fill="#E0E0E0" x="694.469136" y="104.773234" width="78.962963" height="4.02973978"></rect>
                    <rect id="Rectangle" fill="#E0E0E0" x="694.469136" y="92.6840149" width="32.3950617" height="4.02973978"></rect>
                    <rect id="Rectangle" fill="#3AD29F" opacity="0.6" x="749.135802" y="92.6840149" width="24.2962963" height="4.02973978"></rect>
                    <rect id="Rectangle" fill="#6C63FF" x="720.790123" y="118.877323" width="24.2962963" height="4.02973978"></rect>
                    <g id="Group" opacity="0.5" transform="translate(607.407407, 189.397770)" fill="url(#linearGradient-9)">
                        <rect id="Rectangle" x="0.411778445" y="0.919573405" width="69.896997" height="57.4254434"></rect>
                    </g>
                    <rect id="Rectangle" fill="#F2F2F2" x="607.407407" y="193.427509" width="66.8148148" height="54.401487"></rect>
                    <rect id="Rectangle" fill="#6C63FF" x="607.407407" y="193.427509" width="66.8148148" height="12.0892193"></rect>
                    <rect id="Rectangle" fill="#000000" opacity="0.1" x="607.407407" y="193.427509" width="66.8148148" height="12.0892193"></rect>
                    <rect id="Rectangle" fill="#E0E0E0" x="613.481481" y="209.546468" width="56.691358" height="8.05947955"></rect>
                    <rect id="Rectangle" fill="#E0E0E0" x="613.481481" y="221.635688" width="40.4938272" height="4.02973978"></rect>
                    <rect id="Rectangle" fill="#E0E0E0" x="613.481481" y="225.665428" width="26.3209877" height="4.02973978"></rect>
                    <rect id="Rectangle" fill="#E0E0E0" x="613.481481" y="227.680297" width="36.4444444" height="4.02973978"></rect>
                    <rect id="Rectangle" fill="#E0E0E0" x="613.481481" y="233.724907" width="40.4938272" height="4.02973978"></rect>
                    <rect id="Rectangle" fill="#E0E0E0" x="613.481481" y="237.754647" width="14.1728395" height="4.02973978"></rect>
                    <g id="Group" opacity="0.5" transform="translate(562.864198, 169.249071)" fill="url(#linearGradient-4)">
                        <rect id="Rectangle" x="0.690815888" y="0.925779691" width="85.6043908" height="70.9128155"></rect>
                    </g>
                    <rect id="Rectangle" fill="#FFFFFF" x="564.888889" y="173.27881" width="83.0123457" height="66.4907063"></rect>
                    <rect id="Rectangle" fill="#6C63FF" x="564.888889" y="171.263941" width="83.0123457" height="16.1189591"></rect>
                    <rect id="Rectangle" fill="#F5F5F5" x="570.962963" y="193.427509" width="70.8641975" height="10.0743494"></rect>
                    <rect id="Rectangle" fill="#E0E0E0" x="570.962963" y="207.531599" width="52.6419753" height="4.02973978"></rect>
                    <rect id="Rectangle" fill="#E0E0E0" x="570.962963" y="213.576208" width="32.3950617" height="4.02973978"></rect>
                    <rect id="Rectangle" fill="#E0E0E0" x="570.962963" y="217.605948" width="44.5432099" height="4.02973978"></rect>
                    <rect id="Rectangle" fill="#E0E0E0" x="570.962963" y="223.650558" width="52.6419753" height="4.02973978"></rect>
                    <rect id="Rectangle" fill="#E0E0E0" x="570.962963" y="227.680297" width="18.2222222" height="4.02973978"></rect>
                    <rect id="Rectangle" fill="#69F0AE" x="572.987654" y="195.442379" width="20.2469136" height="4.02973978"></rect>
                    <ellipse id="Oval" fill="#535461" opacity="0.1" cx="445.432099" cy="344.542751" rx="12.1481481" ry="12.0892193"></ellipse>
                    <ellipse id="Oval" fill="#535461" opacity="0.1" cx="467.703704" cy="308.275093" rx="12.1481481" ry="12.0892193"></ellipse>
                </g>
            </g>
        </g>
    </g>
</svg>