<?xml version="1.0" encoding="UTF-8"?>
<svg width="302px" height="302px" viewBox="0 0 302 302" version="1.1" xmlns="http://www.w3.org/2000/svg" xmlns:xlink="http://www.w3.org/1999/xlink">
    <!-- Generator: Sketch 52.5 (67469) - http://www.bohemiancoding.com/sketch -->
    <title>Talk-Icon</title>
    <desc>Created with Sketch.</desc>
    <defs>
        <rect id="path-1" x="0" y="0" width="302" height="302"></rect>
        <path d="M32.416441,7.0952369 C32.3020291,6.37993736 32.5285446,6.0288652 29.6732879,4.01368925 C26.8180311,1.99851329 22.2080925,-0.378219043 17.5650105,0.656147024 C11.5393714,1.99851329 9.14609728,6.00211644 6.82249189,7.94849945 C4.72782407,9.70316831 2.62612597,9.9077975 1.38059145,12.0850546 C0.135056929,14.2623118 -0.527614109,20.526178 0.555436894,23.0164945 C2.04944951,26.4517569 4.99566142,27.3769021 7.14637533,28.3666078 C10.8348839,30.063969 16.0485081,28.2713295 16.1748045,27.9743754 C17.1517616,25.6773069 22.4105159,19.1974141 25.5735294,16.4749878 C27.8994487,14.4730539 32.9534277,10.4524603 32.416441,7.0952369 Z" id="path-3"></path>
    </defs>
    <g id="Talk-Icon" stroke="none" stroke-width="1" fill="none" fill-rule="evenodd">
        <g>
            <rect id="Rectangle" x="0" y="0" width="302" height="302"></rect>
            <mask id="mask-2" fill="white">
                <use xlink:href="#path-1"></use>
            </mask>
            <g id="Mask"></g>
            <g mask="url(#mask-2)">
                <g transform="translate(-5.000000, 16.000000)">
                    <circle id="Oval" fill="#FF69B4" cx="150.5" cy="155.5" r="115.5"></circle>
                    <g id="Group" stroke-width="1" fill="none">
                        <g id="Scene/Whiteboard" transform="translate(25.000000, 165.000000)" fill="#F2F2F2">
                            <path d="M0.328043876,66.8543975 C6.92156374,33.0096299 73.640158,52.2905109 117.380121,41.8273345 C161.120085,31.364158 212.868105,-17.3649638 247.115856,6.5050043 C281.363606,30.3749724 244.924393,88.075602 166.374735,101.096716 C87.8250766,114.11783 -6.26547599,100.699165 0.328043876,66.8543975 Z" id="Background-Shape"></path>
                        </g>
                        <g id="A-Human/Standing" transform="translate(0.000000, 9.000000)">
                            <g id="Head/Front/Turban-1" transform="translate(44.826667, 0.000000)" stroke-width="1">
                                <g id="Head" transform="translate(29.382353, 16.990385)" fill="#B28B67">
                                    <path d="M4.49564902,18.9032426 C1.98840413,15.938831 0.291448344,12.3059038 0.575010652,8.23510454 C1.39203262,-3.49400166 17.6014064,-0.913747739 20.7544652,5.00609785 C23.9075239,10.9259434 23.5328586,25.9421227 19.4578111,27.0001642 C17.8326877,27.4221097 14.3706918,26.3885122 10.8471877,24.2492831 L13.0588235,40.0096154 L0,40.0096154 L4.49564902,18.9032426 Z"></path>
                                </g>
                                <g id="Turban" transform="translate(16.867647, 12.605769)">
                                    <mask id="mask-4" fill="white">
                                        <use xlink:href="#path-3"></use>
                                    </mask>
                                    <use fill="#5C63AB" xlink:href="#path-3"></use>
                                    <path d="M6.77808638,6.57692308 C7.75754515,12.8138681 10.32878,18.5180757 14.4917908,23.6895458 C9.63757023,19.8957269 6.43932623,14.5909768 4.89705882,7.7752955 L6.77808638,6.57692308 Z M4.35207547,8.95675133 C5.95876279,15.6575197 10.13062,21.9892436 16.8676471,27.9519231 C9.0722596,23.2122841 4.17520078,17.0959335 2.17647059,9.60287131 L4.35207547,8.95675133 Z" id="SHade" fill-opacity="0.2" fill="#000000" mask="url(#mask-4)"></path>
                                </g>
                            </g>
                            <g id="Bottom/Standing/Sweatpants" transform="translate(0.000000, 102.279343)">
                                <polygon id="Leg" fill="#997659" points="69.9733333 9.9475983e-14 89.9981913 69.1871343 99.4168843 121.133891 108.870414 121.133891 99.4337325 9.9475983e-14"></polygon>
                                <path d="M60.9739576,0 C62.3712254,35.9423573 61.8201633,55.5462957 61.5074381,58.8118151 C61.1947128,62.0773345 59.4193486,83.9475942 47.3214824,122.230126 L57.1539851,122.230126 C73.1756192,85.5045779 78.7686182,63.6343182 80.6061784,58.8118151 C82.4437385,53.9893119 87.8708737,34.3853736 95.7942506,0 L60.9739576,0 Z" id="Leg" fill="#B28B67"></path>
                                <path d="M69.5434558,1.13686838e-13 C74.7522337,23.8074825 83.7611869,61.8102719 96.5703157,114.008368 L110.397179,114.008368 C111.418451,60.4320145 107.074009,25.1698109 99.5505216,1.13686838e-13 L69.5434558,1.13686838e-13 Z" id="Pant" fill="#69A1AC"></path>
                                <path d="M60.9040889,0 C62.2725299,35.9423573 58.7261283,71.352387 47.7406776,114.567973 L62.4931803,114.567973 C78.5442693,78.3905422 90.0486017,43.1552481 97.9110485,0 L60.9040889,0 Z" id="Pant" fill="#89C5CC"></path>
                                <g id="Accessories/Shoe/Flat-Simple" transform="translate(45.920000, 109.075314)" fill="#191847">
                                    <path d="M0,20.35 L0.536884395,11.55 C3.68026706,12.4846838 7.61741929,12.1180171 12.3483411,10.45 C17.2228738,13.9604122 23.3065969,16.4038985 30.5995106,17.780459 L30.5995117,17.7804529 C31.6849186,17.9853268 32.3987315,19.0313061 32.1938575,20.116713 C32.1832922,20.1726874 32.1703403,20.2281849 32.1550373,20.2830538 L31.6761793,22 L12.3483411,22 L1.07376879,22 L0,20.35 Z" id="Shoe"></path>
                                </g>
                                <g id="Accessories/Shoe/Flat-Simple" transform="translate(97.306667, 109.075314)" fill="#191847">
                                    <path d="M0,20.35 L0.536884395,11.55 C3.68026706,12.4846838 7.61741929,12.1180171 12.3483411,10.45 C17.2228738,13.9604122 23.3065969,16.4038985 30.5995106,17.780459 L30.5995117,17.7804529 C31.6849186,17.9853268 32.3987315,19.0313061 32.1938575,20.116713 C32.1832922,20.1726874 32.1703403,20.2281849 32.1550373,20.2830538 L31.6761793,22 L12.3483411,22 L1.07376879,22 L0,20.35 Z" id="Shoe"></path>
                                </g>
                            </g>
                            <g id="Body/Trench-Coat" transform="translate(12.026667, 44.849765)">
                                <path d="M108.113346,49.2241302 L124.621654,63.1832125 C129.252345,64.782642 133.08474,66.6380664 136.118839,68.7494855 C136.819193,69.4814897 137.626717,70.9213186 134.541194,70.4670134 C131.45567,70.0127082 128.189678,69.6732542 127.687643,70.6987661 C127.185609,71.7242779 128.974411,73.1173115 128.009315,74.4809284 C127.365917,75.3900064 124.807567,72.8195749 120.334264,66.7696341 L103.601531,58.4404672 L108.113346,49.2241302 Z M29.7362229,38.4230379 L39.2222519,40.8282249 C26.5240202,62.1207292 19.7334524,73.3735755 18.8505484,74.5867639 C16.8640144,77.3164378 18.3068437,82.584859 18.7970393,85.3451531 C14.7743627,86.0603522 16.6552215,80.174666 11.5605023,81.1577618 C6.91027892,82.055086 2.86475865,84.7702904 -1.20883457,80.6102748 C-1.70965892,80.0988253 -2.01541898,78.5660244 -0.18039115,77.8839755 C4.39133237,76.1847429 11.1857925,72.9106524 12.3305113,71.5614682 C13.8915398,69.7216146 19.6934436,58.6754711 29.7362229,38.4230379 Z" id="Skin" fill="#B28B67" transform="translate(67.586231, 61.914326) rotate(-4.000000) translate(-67.586231, -61.914326) "></path>
                                <path d="M111.190874,47.8243108 C113.435298,47.6635983 115.876683,48.0344465 118.494182,48.9140901 C119.782174,49.3469361 120.474493,50.7392391 120.04052,52.0238859 C119.788472,52.7699983 119.211938,53.3157006 118.520522,53.5573081 C119.021365,53.9217451 119.526645,54.2841704 120.036415,54.6445477 L115.635616,63.6052492 C97.1168243,54.395743 79.7109325,47.4522766 71.7794529,32.2481224 C69.1174433,27.1452152 70.0184578,9.81177815 69.7643702,3.50594654 L75.6132137,1.11351506 C83.7662742,17.9226829 94.8002468,34.0490393 111.190874,47.8243108 Z" id="Back-Arm" fill="#DB2721"></path>
                                <path d="M49.21875,62.1325883 C66.4115846,64.01641 79.9442313,64.01641 89.8166903,62.1325883 C91.0398218,61.8991954 90.9861082,56.6402187 90.4188824,55.2039427 C81.5857018,32.837386 75.7751651,16.4640177 75.7751651,0.928711275 C74.1543876,1.77312542 71.3178743,1.89967144 67.265625,1.30834932 C56.3752665,17.3179821 51.3693566,35.687204 49.21875,62.1325883 Z" id="Shirt" fill="#191847"></path>
                                <path d="M46.0245727,64.7759699 C45.4413924,64.2273868 45.1371901,63.4050429 45.2862323,62.5575815 C45.2863586,62.5568635 45.2864852,62.5561456 45.2866121,62.5554278 L45.5694123,60.9557539 C45.7630057,59.8606825 46.6524426,59.0633134 47.7026431,58.9383131 C47.8862014,58.1199224 48.0444631,57.3070172 48.1751687,56.5000644 C49.2791971,49.6839966 47.3929065,43.0006208 47.4814935,36.4375121 C38.6876865,43.920844 30.7989502,56.8424687 23.8152845,75.2023862 L13.4865731,72.1709876 C13.8806719,70.7106694 14.2888889,69.268287 14.7112241,67.8438404 C13.5190811,67.1683425 12.1260581,64.0723512 13.1286116,63.5542695 C14.1640277,63.0192056 15.2609289,62.6426097 16.4160841,62.4209531 C25.8865406,33.9704326 41.3736198,13.1634482 62.8773218,-5.3379523e-13 L65.8313293,-5.31130695e-13 L69.0967948,-1.0658141e-14 C67.265625,24.1531311 92.5583979,76.884491 83.7761056,121.91897 C67.5433591,125.534612 44.3690136,114.285145 21.8109133,123.272727 C22.6503156,105.136539 39.4648144,83.830588 46.0245727,64.7759699 Z" id="Coat-Front" fill="#FF4133"></path>
                                <polygon id="Shade-Lapel" fill-opacity="0.1" fill="#000000" points="65.1359618 0.545454545 62.3145488 9.1993337 67.9962481 15.686751 62.8614238 20.7848217 75.2840436 42 60.0925864 20.8272065 65.1359618 15.686751 60.0925864 9.95370451"></polygon>
                                <path d="M71.640625,50.1818182 C70.4325021,50.1818182 69.453125,49.2049849 69.453125,48 C69.453125,46.7950151 70.4325021,45.8181818 71.640625,45.8181818 C72.8487479,45.8181818 73.828125,46.7950151 73.828125,48 C73.828125,49.2049849 72.8487479,50.1818182 71.640625,50.1818182 Z M74.375,62.7272727 C73.1668771,62.7272727 72.1875,61.7504395 72.1875,60.5454545 C72.1875,59.3404696 73.1668771,58.3636364 74.375,58.3636364 C75.5831229,58.3636364 76.5625,59.3404696 76.5625,60.5454545 C76.5625,61.7504395 75.5831229,62.7272727 74.375,62.7272727 Z M74.921875,75.2727273 C73.7137521,75.2727273 72.734375,74.295894 72.734375,73.0909091 C72.734375,71.8859242 73.7137521,70.9090909 74.921875,70.9090909 C76.1299979,70.9090909 77.109375,71.8859242 77.109375,73.0909091 C77.109375,74.295894 76.1299979,75.2727273 74.921875,75.2727273 Z" id="Buttons" fill-opacity="0.4" fill="#000000"></path>
                            </g>
                        </g>
                        <g id="A-Human/Standing" transform="translate(229.000000, 116.500000) scale(-1, 1) translate(-229.000000, -116.500000) translate(147.000000, 0.000000)">
                            <g id="Head/Front/Caesar" transform="translate(44.826667, 0.000000)">
                                <g id="Head" stroke-width="1" transform="translate(29.382353, 16.990385)" fill="#B28B67">
                                    <path d="M4.49564902,18.9032426 C1.98840413,15.938831 0.291448344,12.3059038 0.575010652,8.23510454 C1.39203262,-3.49400166 17.6014064,-0.913747739 20.7544652,5.00609785 C23.9075239,10.9259434 23.5328586,25.9421227 19.4578111,27.0001642 C17.8326877,27.4221097 14.3706918,26.3885122 10.8471877,24.2492831 L13.0588235,40.0096154 L0,40.0096154 L4.49564902,18.9032426 Z"></path>
                                </g>
                                <path d="M37.9412245,29.523274 C37.514167,29.2276427 37.0039505,29.0480769 36.4558824,29.0480769 C34.953343,29.0480769 33.7352941,30.3976801 33.7352941,31.7884615 C33.7352941,33.2353156 34.4135944,34.3540286 35.3822436,34.8286285 C34.8648941,35.8474619 34.3446929,36.5868597 33.7352941,36.7211538 C31.3836936,36.4815393 28.2941176,30.5939389 28.2941176,25.7596154 C28.2941176,20.4682115 32.4740201,15.8942308 40.2647059,15.8942308 C47.2669947,15.8942308 49.9220156,18.8024461 50.0588235,21.375 C47.0582068,22.2056679 41.815033,22.5255321 34.2794118,22.4711538 L34.2794118,23.0192308 L40.8088235,23.5673077 L41.8970588,26.8557692 C40.1657159,26.7255795 38.9285053,27.9217647 37.9412245,29.523274 Z" id="Combined-Shape" fill="#191847"></path>
                            </g>
                            <g id="Bottom/Standing/Skinny-Jeans" transform="translate(0.000000, 102.279343)">
                                <polygon id="Leg" fill="#191847" points="69.9733333 9.9475983e-14 89.7927127 69.7352515 104.253137 121.133891 114.8 121.133891 99.4337325 9.9475983e-14"></polygon>
                                <path d="M64.6730404,0 C64.21462,35.9423573 62.6514153,55.5462957 62.1700927,58.8118151 C61.6887701,62.0773345 54.4109206,82.8513599 40.3365442,121.133891 L51.2623802,121.133891 C69.1801382,84.4083436 79.1822891,63.6343182 81.268833,58.8118151 C83.3553768,53.9893119 89.7946547,34.3853736 99.4933333,0 L64.6730404,0 Z" id="Leg" fill="#2F3676"></path>
                                <g id="Accessories/Shoe/Flat-Pointy" transform="translate(39.360000, 109.075314)" fill="#191847">
                                    <path d="M0,22 L0.540983607,10.45 L11.9016393,10.45 C17.2885395,14.3 24.3213264,17.4166667 33,19.8 L33,22 L12.442623,22 L5.40983607,20.9 L5.40983607,22 L0,22 Z" id="Shoe"></path>
                                </g>
                                <g id="Accessories/Shoe/Flat-Pointy" transform="translate(102.773333, 109.075314)" fill="#191847">
                                    <path d="M0,22 L0.540983607,10.45 L11.9016393,10.45 C17.2885395,14.3 24.3213264,17.4166667 33,19.8 L33,22 L12.442623,22 L5.40983607,20.9 L5.40983607,22 L0,22 Z" id="Shoe"></path>
                                </g>
                            </g>
                            <g id="Body/Long-Sleeve" transform="translate(12.026667, 44.849765)">
                                <path d="M105,35.6240672 L126.592198,32.6864535 C130.911513,30.2901962 134.885074,28.667972 138.51288,27.8197807 C139.533782,27.7900508 141.157842,28.160211 138.738443,30.1719255 C136.319045,32.18364 133.864225,34.4090163 134.295288,35.4826332 C134.726351,36.5562501 136.976361,36.1567927 137.349099,37.8081068 C137.597591,38.9089828 133.945962,39.0878642 126.394212,38.3447509 L108.873994,45.2727273 L105,35.6240672 Z M37.1709799,40.6089182 L49.1461161,40.6537435 C36.0150543,70.1267289 29.168315,85.5583168 28.6058982,86.9485074 C27.3404603,90.0764361 30.018297,94.8402173 31.1634462,97.4002378 C27.4337333,99.0648383 27.8311382,92.900143 23.1262057,95.0833594 C18.8317614,97.0760981 15.5649884,100.686807 10.6033786,97.6332935 C9.99337786,97.2578819 9.3249164,95.8443897 10.9400038,94.7398202 C14.9637755,91.9879348 20.7622743,87.1716395 21.5457428,85.5863187 C22.6141421,83.4244504 27.8225544,68.4319836 37.1709799,40.6089182 Z" id="Skin" fill="#D4A181"></path>
                                <path d="M67.5311891,5.28050402 L76.9259482,5.08394539 C81.0423809,25.6404231 94.7195222,37.6556026 122.385145,30.7624576 L128.450945,57.1677123 C102.525961,62.8416416 78.6142865,54.3831125 71.421285,26.4466127 C69.5592441,19.2147355 67.9277602,11.6617612 67.5311891,5.28050402 Z" id="Clothes-Back" fill="#AFB9C5" transform="translate(97.991067, 31.959596) rotate(5.000000) translate(-97.991067, -31.959596) "></path>
                                <path d="M65.3465403,0.00869430198 L79.5525962,3.25378722 C79.5525962,27.6242316 87.3359512,43.1729776 91.328125,61.0909091 L52.9613734,61.0909091 C52.4209106,67.2823083 52.0890173,73.6459447 51.916069,80.1818182 L23.1883945,80.1818182 C29.6982467,45.6348891 43.4383421,18.9076163 64.4086808,0 L65.3390687,0 L65.3465403,0.00869430198 Z" id="Clothes" fill="#C5CFD6"></path>
                                <path d="M59.014623,26.3232269 C58.0258784,41.5093793 58.6073874,53.0986067 60.7591497,61.0909091 L52.9613734,61.0909091 C54.0320285,48.8257648 55.9211827,37.2365393 59.0146213,26.3232327 Z" id="Shade" fill-opacity="0.1" fill="#000000"></path>
                            </g>
                        </g>
                    </g>
                </g>
            </g>
        </g>
    </g>
</svg>