<?xml version="1.0" encoding="UTF-8"?>
<svg width="1440px" height="1059px" viewBox="0 0 1440 1059" version="1.1" xmlns="http://www.w3.org/2000/svg" xmlns:xlink="http://www.w3.org/1999/xlink">
    <!-- Generator: Sketch 52.5 (67469) - http://www.bohemiancoding.com/sketch -->
    <title>white-board</title>
    <desc>Created with Sketch.</desc>
    <defs>
        <rect id="path-1" x="457" y="214" width="931" height="722" rx="8"></rect>
        <filter x="-0.8%" y="-0.7%" width="101.5%" height="101.9%" filterUnits="objectBoundingBox" id="filter-2">
            <feOffset dx="0" dy="2" in="SourceAlpha" result="shadowOffsetOuter1"></feOffset>
            <feGaussianBlur stdDeviation="2" in="shadowOffsetOuter1" result="shadowBlurOuter1"></feGaussianBlur>
            <feColorMatrix values="0 0 0 0 0   0 0 0 0 0   0 0 0 0 0  0 0 0 0.5 0" type="matrix" in="shadowBlurOuter1"></feColorMatrix>
        </filter>
        <linearGradient x1="50%" y1="100%" x2="50%" y2="0%" id="linearGradient-3">
            <stop stop-color="#808080" stop-opacity="0.25" offset="0%"></stop>
            <stop stop-color="#808080" stop-opacity="0.12" offset="54%"></stop>
            <stop stop-color="#808080" stop-opacity="0.1" offset="100%"></stop>
        </linearGradient>
        <linearGradient x1="50.0108389%" y1="100%" x2="50.0108389%" y2="0%" id="linearGradient-4">
            <stop stop-color="#808080" stop-opacity="0.25" offset="0%"></stop>
            <stop stop-color="#808080" stop-opacity="0.12" offset="54%"></stop>
            <stop stop-color="#808080" stop-opacity="0.1" offset="100%"></stop>
        </linearGradient>
        <linearGradient x1="49.9891611%" y1="100%" x2="49.9891611%" y2="0%" id="linearGradient-5">
            <stop stop-color="#808080" stop-opacity="0.25" offset="0%"></stop>
            <stop stop-color="#808080" stop-opacity="0.12" offset="54%"></stop>
            <stop stop-color="#808080" stop-opacity="0.1" offset="100%"></stop>
        </linearGradient>
        <linearGradient x1="49.9891611%" y1="100.022391%" x2="49.9891611%" y2="0%" id="linearGradient-6">
            <stop stop-color="#808080" stop-opacity="0.25" offset="0%"></stop>
            <stop stop-color="#808080" stop-opacity="0.12" offset="54%"></stop>
            <stop stop-color="#808080" stop-opacity="0.1" offset="100%"></stop>
        </linearGradient>
        <linearGradient x1="50.0108389%" y1="100.022391%" x2="50.0108389%" y2="0%" id="linearGradient-7">
            <stop stop-color="#808080" stop-opacity="0.25" offset="0%"></stop>
            <stop stop-color="#808080" stop-opacity="0.12" offset="54%"></stop>
            <stop stop-color="#808080" stop-opacity="0.1" offset="100%"></stop>
        </linearGradient>
        <linearGradient x1="50.025523%" y1="99.9467204%" x2="50.025523%" y2="-0.00589895769%" id="linearGradient-8">
            <stop stop-color="#808080" stop-opacity="0.25" offset="0%"></stop>
            <stop stop-color="#808080" stop-opacity="0.12" offset="54%"></stop>
            <stop stop-color="#808080" stop-opacity="0.1" offset="100%"></stop>
        </linearGradient>
        <linearGradient x1="49.9892825%" y1="99.9982216%" x2="49.9892825%" y2="0.0034863853%" id="linearGradient-9">
            <stop stop-color="#808080" stop-opacity="0.25" offset="0%"></stop>
            <stop stop-color="#808080" stop-opacity="0.12" offset="54%"></stop>
            <stop stop-color="#808080" stop-opacity="0.1" offset="100%"></stop>
        </linearGradient>
    </defs>
    <g id="PMA" stroke="none" stroke-width="1" fill="none" fill-rule="evenodd">
        <g id="Contact" transform="translate(0.000000, -3104.000000)">
            <g id="white-board" transform="translate(-263.000000, 3093.000000)">
                <path d="M500.388374,20.8947396 L770.908614,151.170421 C798.327316,164.374572 818.241171,189.345756 825.013031,219.015214 L891.826012,511.742013 C898.597873,541.411471 891.4907,572.550029 872.51637,596.343087 L685.310555,831.091753 C666.336225,854.884811 637.55987,868.742773 607.127407,868.742773 L306.872593,868.742773 C276.44013,868.742773 247.663775,854.884811 228.689445,831.091753 L41.4836305,596.343087 C22.5093,572.550029 15.4021274,541.411471 22.1739875,511.742013 L88.9869691,219.015214 C95.7588293,189.345756 115.672684,164.374572 143.091386,151.170421 L413.611626,20.8947396 C441.030328,7.69058868 472.969672,7.69058868 500.388374,20.8947396 Z" id="Polygon" fill="#6C63FF"></path>
                <path d="M1324.38837,187.89474 L1594.90861,318.170421 C1622.32732,331.374572 1642.24117,356.345756 1649.01303,386.015214 L1715.82601,678.742013 C1722.59787,708.411471 1715.4907,739.550029 1696.51637,763.343087 L1509.31056,998.091753 C1490.33622,1021.88481 1461.55987,1035.74277 1431.12741,1035.74277 L1130.87259,1035.74277 C1100.44013,1035.74277 1071.66378,1021.88481 1052.68944,998.091753 L865.48363,763.343087 C846.5093,739.550029 839.402127,708.411471 846.173988,678.742013 L912.986969,386.015214 C919.758829,356.345756 939.672684,331.374572 967.091386,318.170421 L1237.61163,187.89474 C1265.03033,174.690589 1296.96967,174.690589 1324.38837,187.89474 Z" id="Polygon" fill="#FF69B4" transform="translate(1281.000000, 624.000000) rotate(22.000000) translate(-1281.000000, -624.000000) "></path>
                <g id="Rectangle">
                    <use fill="black" fill-opacity="1" filter="url(#filter-2)" xlink:href="#path-1"></use>
                    <use fill="#FFFFFF" fill-rule="evenodd" xlink:href="#path-1"></use>
                </g>
                <path d="M457,816 L1388,816 L1388,928 C1388,932.418278 1384.41828,936 1380,936 L465,936 C460.581722,936 457,932.418278 457,928 L457,816 Z" id="Rectangle" fill-opacity="0.36" fill="#273148"></path>
                <g id="undraw_creation" transform="translate(537.000000, 334.000000)">
                    <rect id="Rectangle" fill="url(#linearGradient-3)" x="0" y="0" width="785" height="333"></rect>
                    <rect id="Rectangle" fill="#EEEEEE" x="8" y="2" width="770" height="327"></rect>
                    <rect id="Rectangle" fill="url(#linearGradient-4)" x="480" y="123" width="42" height="40"></rect>
                    <rect id="Rectangle" fill="#F5F5F5" x="480" y="125" width="40" height="38"></rect>
                    <rect id="Rectangle" fill="url(#linearGradient-4)" x="242" y="253" width="42" height="40"></rect>
                    <rect id="Rectangle" fill="#F5F5F5" x="242" y="254" width="40" height="38"></rect>
                    <rect id="Rectangle" fill="url(#linearGradient-5)" x="597" y="113" width="42" height="40"></rect>
                    <rect id="Rectangle" fill="#F5F5F5" x="597" y="115" width="40" height="38"></rect>
                    <rect id="Rectangle" fill="url(#linearGradient-6)" x="480" y="227" width="42" height="40"></rect>
                    <rect id="Rectangle" fill="#F5F5F5" x="480" y="227" width="40" height="38"></rect>
                    <rect id="Rectangle" fill="url(#linearGradient-7)" x="220" y="28" width="42" height="40"></rect>
                    <rect id="Rectangle" fill="#F5F5F5" x="222" y="30" width="40" height="38"></rect>
                    <rect id="Rectangle" fill="url(#linearGradient-4)" x="617" y="20" width="42" height="40"></rect>
                    <rect id="Rectangle" fill="#F5F5F5" x="617" y="20" width="40" height="38"></rect>
                    <rect id="Rectangle" fill="url(#linearGradient-4)" x="713" y="163" width="42" height="40"></rect>
                    <rect id="Rectangle" fill="#F5F5F5" x="713" y="164" width="40" height="38"></rect>
                    <rect id="Rectangle" fill="url(#linearGradient-4)" x="73" y="13" width="42" height="40"></rect>
                    <rect id="Rectangle" fill="#F5F5F5" x="73" y="15" width="40" height="38"></rect>
                    <rect id="Rectangle" fill="url(#linearGradient-4)" x="533" y="48" width="42" height="40"></rect>
                    <rect id="Rectangle" fill="#7CFCFF" x="535" y="50" width="40" height="38"></rect>
                    <rect id="Rectangle" fill="url(#linearGradient-7)" x="287" y="133" width="42" height="40"></rect>
                    <rect id="Rectangle" fill="#7CFCFF" x="287" y="134" width="40" height="38"></rect>
                    <rect id="Rectangle" fill="url(#linearGradient-7)" x="425" y="177" width="42" height="40"></rect>
                    <rect id="Rectangle" fill="#7CFCFF" x="427" y="177" width="40" height="38"></rect>
                    <rect id="Rectangle" fill="url(#linearGradient-4)" x="472" y="30" width="42" height="40"></rect>
                    <rect id="Rectangle" fill="#FFFFA5" x="473" y="30" width="40" height="38"></rect>
                    <rect id="Rectangle" fill="url(#linearGradient-7)" x="545" y="202" width="42" height="40"></rect>
                    <rect id="Rectangle" fill="#FFFFA5" x="545" y="202" width="40" height="38"></rect>
                    <rect id="Rectangle" fill="url(#linearGradient-4)" x="298" y="30" width="42" height="40"></rect>
                    <rect id="Rectangle" fill="#FFFFA5" x="298" y="30" width="40" height="38"></rect>
                    <rect id="Rectangle" fill="url(#linearGradient-5)" x="352" y="245" width="42" height="40"></rect>
                    <rect id="Rectangle" fill="#FFFFA5" x="352" y="245" width="40" height="38"></rect>
                    <path d="M245.689127,131.206441 L245.689127,133.580316 L239.013606,132.982385 L239.013606,147.823564 L221.48928,173.400726 L220.381022,172.749249 L218,175.721054 L240.632701,190 L240.632701,184.645395 L239.359936,183.904675 C240.944399,178.01461 247.429438,154.525744 251.135175,151.411149 C251.135175,151.411149 257.810696,146.6634 261.447167,140.130782 C265.083637,133.598165 263.282719,111.028506 245.689127,131.206441 Z" id="Path" fill="url(#linearGradient-8)"></path>
                    <path d="M210.800327,186.35946 C210.800327,186.35946 185.932953,181.303721 172.255897,175.973982 C165.863294,173.468786 159.086496,172.072678 152.219899,171.846307 L137.299475,171.41321 L129.857025,167.1176 L132.1839,161.337087 C132.414812,161.239862 132.645723,161.133797 132.867753,161.018894 L133.080902,159.781475 C134.281802,159.50002 135.467502,159.157812 136.633384,158.756186 C136.269255,161.637603 154.466844,146.735548 154.466844,146.735548 L153.92509,147.009547 L153.854041,146.125677 L153.649773,146.231741 C162.105424,134.795185 162.347874,119.281658 154.253695,107.588926 L154.830973,107.076281 L154.830973,92.7487409 L154.21817,92.2272574 L154.21817,92.1653864 C141.90882,81.1346833 124.981243,82.0185537 112.742943,84.8027456 C103.570504,86.7778364 96.66837,94.3285259 95.5578111,103.60267 C79.2252751,107.889442 84.678335,116.127114 84.4207801,119.317886 C83.1507677,134.838651 88.3462727,143.969033 93.994719,149.254578 C96.356191,151.590524 99.0977167,153.512063 102.103259,154.937865 L98.5507772,161.814377 L97.502795,161.814377 L94.5897598,170.05205 L94.4476605,170.05205 L91.2770703,172.120307 C71.5785577,184.848041 61.7115389,207.563511 65.9833985,229.978466 C65.9833985,229.978466 83.7458085,263.326898 78.2039366,296.684168 C76.3566459,307.891645 77.1293108,314.75048 78.9766014,318.922349 C78.4520412,323.44903 77.1513355,327.852658 75.1310397,331.94176 C68.4079675,345.464978 68.4079675,359.57155 76.9605679,376.029218 L79.4028992,461.260845 C79.4028992,461.260845 82.4580338,501.229466 79.4028992,509.4583 C76.3477647,517.687134 80.6285055,557.072401 80.6285055,557.072401 L80.0157024,557.072401 L80.0157024,578.824452 L125.84272,580 C125.84272,580 136.500166,575.121035 138.44515,571.444134 L161.456352,578.249937 C161.456352,578.249937 186.776667,574.051552 171.962818,568.253362 C160.905717,563.922397 158.161425,557.752981 157.477572,554.889241 L193.695126,454.790913 C193.695126,454.790913 186.972054,369.559286 162.530978,340.170594 L160.053122,322.837895 L160.390607,322.837895 L165.586112,221.643568 L166.01241,221.6966 L165.888073,221.6966 C179.269863,223.750488 192.90363,223.547304 206.217625,221.095568 C210.200981,220.41303 214.111091,219.359541 217.89641,217.948989 L218.589144,217.683828 L218.669075,217.683828 L218.731243,217.683828 C221.572166,216.574357 224.258429,215.106954 226.724327,213.317508 L242,190.867199 L218.740124,175.461337 L210.800327,186.35946 Z M114.883313,530.618158 L126.473286,452.484011 L126.473286,412.471196 L147.246424,454.207559 L124.865788,544.645182 L123.693468,544.326989 L118.533488,562.136978 C116.858214,560.816307 115.577571,559.064995 114.830026,557.072401 L114.883313,530.618158 Z" id="Shape" fill="url(#linearGradient-9)" fill-rule="nonzero"></path>
                    <rect id="Rectangle" fill="url(#linearGradient-4)" x="417" y="83" width="42" height="40"></rect>
                    <rect id="Rectangle" fill="#FF69B4" x="417" y="84" width="40" height="38"></rect>
                    <rect id="Rectangle" fill="#000000" opacity="0.1" x="217" y="100" width="42" height="40"></rect>
                    <rect id="Rectangle" fill="url(#linearGradient-6)" x="212" y="97" width="42" height="40"></rect>
                    <rect id="Rectangle" fill="#FF69B4" x="212" y="97" width="40" height="38"></rect>
                    <rect id="Rectangle" fill="url(#linearGradient-4)" x="713" y="58" width="42" height="40"></rect>
                    <rect id="Rectangle" fill="#FF69B4" x="713" y="59" width="40" height="38"></rect>
                    <rect id="Rectangle" fill="url(#linearGradient-6)" x="637" y="245" width="42" height="40"></rect>
                    <rect id="Rectangle" fill="#FF69B4" x="638" y="245" width="40" height="38"></rect>
                    <path d="M65,195 L70,227" id="Path" fill="#333333"></path>
                    <path d="M235.852021,136.63547 L235.852021,150.940704 L218,175.909523 L235.852021,187 C235.852021,187 243.792337,157.814535 248.063679,154.373264 C248.063679,154.373264 254.781004,149.79071 258.44085,143.500589 C262.100697,137.210468 260.26621,115.456406 242.569345,134.919191 L242.569345,136.417668 L235.852021,136.63547 Z" id="Path" fill="#FDA57D"></path>
                    <path d="M99.2675851,169.115919 L106.124387,155.67554 C106.534802,154.873772 107.353707,154.350106 108.268245,154.304604 L134.331181,153.003082 C135.190715,152.961213 136.013533,153.348056 136.517796,154.031105 C137.022059,154.714154 137.139313,155.600686 136.829396,156.387038 L130.105477,173.41094 C129.695735,174.444656 128.63751,175.088471 127.509814,174.99012 L101.313995,172.708119 C100.477147,172.634152 99.7316521,172.160007 99.3222374,171.441334 C98.9128227,170.722661 98.8923669,169.852282 99.2675851,169.115919 Z" id="Path" fill="#FDA57D"></path>
                    <polygon id="Path" fill="#EDEEF9" points="99.3851101 164 95 177 140 175.367235 122.713896 164.878498"></polygon>
                    <polygon id="Path" fill="#EDEEF9" points="215 177.927034 217.318109 175 237 186.725984 237 192"></polygon>
                    <path d="M82.6484633,305 C84.4659066,313.968386 83.3933833,323.283601 79.585667,331.601388 C73.2041059,344.96843 73.2041059,358.919341 81.3509675,375.188031 L83.6723376,459.45967 C83.6723376,459.45967 86.5674303,498.97693 83.6723376,507.115698 C80.7772448,515.254467 84.8286094,554.187858 84.8286094,554.187858 L117.301311,554.187858 L117.301311,528.037641 L128.316786,450.74588 L128.316786,411.219775 L148.035192,452.479792 L125.359908,547.791847 L154.92869,560 L192,453.06366 C192,453.06366 185.618439,368.792021 162.431217,339.740156 L158.079752,308.069731 L82.6484633,305 Z" id="Path" fill="#6C63FF"></path>
                    <path d="M83,575.842557 L83,555 L115.623915,555 C115.623915,555 117.914994,563.453624 132.793938,565.168355 C147.672882,566.883087 125.929413,577 125.929413,577 L83,575.842557 Z" id="Path" fill="#333333"></path>
                    <path d="M120,562.386705 L125.655954,542 L156.945869,550.704827 C156.945869,550.704827 156.850446,559.583751 170.660689,565.224479 C184.470932,570.865207 160.901567,575 160.901567,575 L120,562.386705 Z" id="Path" fill="#333333"></path>
                    <path d="M157.018221,310.073475 L82,307 C82.9288638,311.530425 83.1213893,316.184072 82.5699806,320.777339 C85.9986334,328.958467 93.3645371,326.719982 93.3645371,326.719982 L159,324.676921 L157.018221,310.073475 Z" id="Path" fill="#000000" opacity="0.1"></path>
                    <path d="M97.742993,172 L94.7496345,174.037802 C76.2425383,186.635478 66.8952598,209.036065 70.925661,231.131532 C70.925661,231.131532 87.648089,264.01865 82.4601861,296.896946 C77.2722832,329.775243 93.9947113,324.720436 93.9947113,324.720436 L160.024162,322.682635 L164.922385,222.909753 C164.922385,222.909753 204.713863,228.599718 222.586233,214.687973 L237,192.554449 L215.054556,177.381208 L207.610662,188.12598 C207.610662,188.12598 184.120259,183.141746 171.233895,177.884042 C165.213471,175.416943 158.806071,174.040116 152.308144,173.81726 L97.742993,172 Z" id="Path" fill="#333333"></path>
                    <path d="M99.2531789,334 C99.2531789,334 95.4877095,353.9509 117,387" id="Path" fill="#000000" opacity="0.1"></path>
                    <path d="M165,223.453262 C165,223.453262 192.670638,213 204.781478,213 C216.892319,213 214.873845,218.967609 214.873845,218.967609 C214.873845,218.967609 195.557932,228.684867 165,223.453262 Z" id="Path" fill="#000000" opacity="0.1"></path>
                    <path d="M133.851999,155.003902 L122.874686,156.39741 C122.524812,156.39741 122.209925,156.908363 122,157.623698 C124.414134,162.268724 127.431802,165 130.746863,165 C131.9155,164.985011 133.060581,164.648958 134.070671,164.024544 L134.945357,158.627023 C135.181522,156.824753 134.621723,154.901712 133.851999,155.003902 Z" id="Path" fill="#000000" opacity="0.1"></path>
                    <circle id="Oval" fill="#FDA57D" cx="126" cy="129" r="34"></circle>
                    <path d="M155,96.0953405 L155,110.308016 L153.292988,111.880293 C151.820656,113.238828 151.138991,115.257159 151.484512,117.234979 C151.830033,119.212799 153.155119,120.877512 155,121.651507 C155,121.651507 152.178565,144.338489 148.64956,152.848329 C148.64956,152.848329 143.165894,153.452367 144.412985,149.29516 C149.003345,134.052066 139.822626,136.859069 137.708761,139.71937 C135.594896,142.579671 138.062546,149.996911 138.062546,149.996911 C138.062546,149.996911 144.76677,162.433001 109.467877,159.572701 C109.467877,159.572701 86.1711388,154.607147 88.6387888,123.055009 C88.8864383,119.892688 83.6946442,111.711517 99.2523372,107.456598 C100.199217,98.3846314 106.750319,90.9039142 115.588357,88.8024617 C127.192503,86.0221071 143.289718,85.1426978 155,96.0953405 Z" id="Path" fill="#000000" opacity="0.1"></path>
                    <path d="M154,94.0953405 L154,108.308016 L152.292988,109.880293 C150.820656,111.238828 150.138991,113.257159 150.484512,115.234979 C150.830033,117.212799 152.155119,118.877512 154,119.651507 C154,119.651507 151.178565,142.338489 147.64956,150.848329 C147.64956,150.848329 142.165894,151.452367 143.412985,147.29516 C148.003345,132.052066 138.822626,134.859069 136.708761,137.71937 C134.594896,140.579671 137.062546,147.996911 137.062546,147.996911 C137.062546,147.996911 143.76677,160.433001 108.467877,157.572701 C108.467877,157.572701 85.1711388,152.607147 87.6387888,121.055009 C87.8864383,117.892688 82.6946442,109.711517 98.2523372,105.456598 C99.1992175,96.3846314 105.750319,88.9039142 114.588357,86.8024617 C126.201348,84.0221071 142.289718,83.1426978 154,94.0953405 Z" id="Path" fill="#72351C"></path>
                </g>
            </g>
        </g>
    </g>
</svg>